<?xml version="1.0" encoding="UTF-8" standalone="no"?>
<!-- Created with Inkscape (http://www.inkscape.org/) -->

<svg
   xmlns:dc="http://purl.org/dc/elements/1.1/"
   xmlns:cc="http://creativecommons.org/ns#"
   xmlns:rdf="http://www.w3.org/1999/02/22-rdf-syntax-ns#"
   xmlns:svg="http://www.w3.org/2000/svg"
   xmlns="http://www.w3.org/2000/svg"
   xmlns:sodipodi="http://sodipodi.sourceforge.net/DTD/sodipodi-0.dtd"
   xmlns:inkscape="http://www.inkscape.org/namespaces/inkscape"
   width="744.09448819"
   height="1052.3622047"
   id="svg3769"
   version="1.1"
   inkscape:version="0.48.1 "
   sodipodi:docname="ammo.svg"
   inkscape:export-filename="C:\Users\Bennett\Dropbox\One Man Army\One Man Army\HighResolutionContent\Sprites\Power Ups\ammo.png"
   inkscape:export-xdpi="90"
   inkscape:export-ydpi="90">
  <defs
     id="defs3771" />
  <sodipodi:namedview
     id="base"
     pagecolor="#ffffff"
     bordercolor="#666666"
     borderopacity="1.0"
     inkscape:pageopacity="0.0"
     inkscape:pageshadow="2"
     inkscape:zoom="1.4"
     inkscape:cx="353.90898"
     inkscape:cy="530.10153"
     inkscape:document-units="px"
     inkscape:current-layer="layer1"
     showgrid="false"
     inkscape:window-width="1366"
     inkscape:window-height="706"
     inkscape:window-x="-4"
     inkscape:window-y="-4"
     inkscape:window-maximized="1" />
  <metadata
     id="metadata3774">
    <rdf:RDF>
      <cc:Work
         rdf:about="">
        <dc:format>image/svg+xml</dc:format>
        <dc:type
           rdf:resource="http://purl.org/dc/dcmitype/StillImage" />
        <dc:title></dc:title>
      </cc:Work>
    </rdf:RDF>
  </metadata>
  <g
     inkscape:label="Layer 1"
     inkscape:groupmode="layer"
     id="layer1">
    <path
       style="fill:#464646;fill-opacity:1"
       d="m 285.21565,548.24247 -1.77114,-1.23989 0.1546,-30.26011 0.15461,-30.26011 30.7287,-0.18897 30.7287,-0.18897 0.75355,1.18897 0.75354,1.18897 0.29406,29.70074 0.29405,29.70074 -2.02843,1.08558 -2.02843,1.08558 -28.13133,-0.28632 -28.13134,-0.28632 -1.77114,-1.23989 z m 54.03807,-2.6551 3.5,-0.13073 -0.0122,-26.66605 -0.0122,-26.66605 -0.62023,-0.62022 -0.62023,-0.62023 -21.36753,-0.33166 c -11.75214,-0.18241 -23.90578,-0.10134 -27.00809,0.18015 l -5.64055,0.51181 0.28626,26.43137 c 0.15745,14.53724 0.4457,26.57593 0.64056,26.75262 0.19486,0.1767 9.09297,0.59981 19.77358,0.94025 l 19.41929,0.61897 0.58071,0.5853 0.58071,0.5853 3.5,-0.72005 c 1.925,-0.39602 5.075,-0.77887 7,-0.85078 z m -42.36408,-16.24458 c -0.34975,-2.55176 -0.63592,-6.32862 -0.63592,-8.39301 l 0,-3.75344 1.3625,-0.52284 1.36249,-0.52284 0.69806,-7.08415 0.69805,-7.08415 0.84467,0 0.84467,0 0.84478,7.25 0.84478,7.25 2,0 2,0 0.84478,-7.25 0.84478,-7.25 0.81044,0 0.81044,0 0.84478,7.25 0.84478,7.25 2,0 2,0 0.84478,-7.25 0.84478,-7.25 0.81044,0 0.81044,0 0.84478,7.25 0.84478,7.25 2,0 2,0 0.84478,-7.25 0.84478,-7.25 0.84467,0 0.84467,0 0.69805,7.08415 0.69805,7.08415 1.3625,0.52284 1.3625,0.52284 0,3.75344 c 0,2.06439 -0.28617,5.84125 -0.63592,8.39301 l -0.63593,4.63957 -17.22815,0 -17.22815,0 -0.63593,-4.63957 z m 9.02002,-0.62946 -0.49805,-1.23097 0.0371,3 0.037,3 0.46099,-1.76903 c 0.25355,-0.97297 0.23687,-2.32297 -0.0371,-3 z m 9,0 -0.49805,-1.23097 0.0371,3 0.037,3 0.46099,-1.76903 c 0.25355,-0.97297 0.23687,-2.32297 -0.0371,-3 z m 9,0 -0.49805,-1.23097 0.0371,3 0.037,3 0.46099,-1.76903 c 0.25355,-0.97297 0.23687,-2.32297 -0.0371,-3 z"
       id="path3796"
       inkscape:connector-curvature="0" />
  </g>
</svg>
