<?xml version="1.0" encoding="UTF-8" standalone="no"?>
<!-- Created with Inkscape (http://www.inkscape.org/) -->

<svg
   xmlns:dc="http://purl.org/dc/elements/1.1/"
   xmlns:cc="http://creativecommons.org/ns#"
   xmlns:rdf="http://www.w3.org/1999/02/22-rdf-syntax-ns#"
   xmlns:svg="http://www.w3.org/2000/svg"
   xmlns="http://www.w3.org/2000/svg"
   xmlns:sodipodi="http://sodipodi.sourceforge.net/DTD/sodipodi-0.dtd"
   xmlns:inkscape="http://www.inkscape.org/namespaces/inkscape"
   width="744.09448819"
   height="1052.3622047"
   id="svg3090"
   version="1.1"
   inkscape:version="0.48.0 r9654"
   sodipodi:docname="Rage Bar Empty.svg">
  <defs
     id="defs3092" />
  <sodipodi:namedview
     id="base"
     pagecolor="#ffffff"
     bordercolor="#666666"
     borderopacity="1.0"
     inkscape:pageopacity="0.0"
     inkscape:pageshadow="2"
     inkscape:zoom="0.35"
     inkscape:cx="375"
     inkscape:cy="520"
     inkscape:document-units="px"
     inkscape:current-layer="layer1"
     showgrid="false"
     inkscape:window-width="1280"
     inkscape:window-height="750"
     inkscape:window-x="-8"
     inkscape:window-y="-8"
     inkscape:window-maximized="1" />
  <metadata
     id="metadata3095">
    <rdf:RDF>
      <cc:Work
         rdf:about="">
        <dc:format>image/svg+xml</dc:format>
        <dc:type
           rdf:resource="http://purl.org/dc/dcmitype/StillImage" />
        <dc:title></dc:title>
      </cc:Work>
    </rdf:RDF>
  </metadata>
  <g
     inkscape:label="Layer 1"
     inkscape:groupmode="layer"
     id="layer1">
    <path
       style="fill:#000000"
       d="m 395.26508,786.51874 c -30.13573,-12.2671 -30.59066,-13.5424 -35.918,-100.68662 -6.91413,-113.10106 1.50052,-439.86192 18.84915,-445.155 38.77544,-11.83041 100.15824,-10.95149 166.0774,-9.93569 l 153.0812,2.35895 20.90496,45.15266 c 8.5469,18.46054 0.9049,60.07545 0.9049,88.7906 0,44.75749 -24.26754,68.12843 -39.07648,75.06651 -30.49205,14.28572 -10.17097,8.3026 -52.93728,11.46609 -30.77542,2.2765 -62.43468,19.74605 -75.30055,-64.21488 -6.22808,-40.64359 40.88617,-13.66778 4.26667,-22.6212 -21.69432,-5.30423 -20.67938,1.04409 -29.77308,29.42972 -14.31065,44.67013 -4.97807,42.37628 -14.27016,63.8437 -24.31203,66.38232 -2.96815,255.19759 84.99391,176.67024 -60.96451,76.02122 -126.12843,-9.62581 -94.4526,-154.06915 6.55573,-19.15981 17.17893,-40.21222 74.20442,-34.68341 33.78555,3.27563 71.48216,5.14382 86.96341,3.09854 32.27874,-4.26446 47.52694,7.12922 34.10659,31.42857 l 8.23635,147.99807 c 4.9289,88.56756 -10.34773,154.84234 -17.45916,161.4389 -11.55301,10.71657 -121.96394,10.70385 -187.26991,10.1869 -19.58516,-0.15503 -77.91585,-5.87289 -94.70313,-12.70636 z m 189.09897,-19.94043 c 72.50574,-0.22631 76.46041,-7.64645 79.41948,-149.01606 l 2.61224,-124.80031 -37.50004,0 c -20.62503,0 -51.14852,-2.53206 -67.82997,-5.62681 -39.47981,-7.32429 -39.60108,27.12628 -31.16495,111.32392 -5.90769,67.18208 51.66484,73.27732 41.80849,-16.90693 24.5222,0 42.57812,-6.36935 42.57812,52.77232 l -5.71429,61.34375 -65.50447,0 -71.21875,0 -8.13943,-70.78125 c -10.71711,-93.19697 -4.48529,-153.27132 -0.31113,-192.37757 1.31876,-12.35494 5.0042,-16.98932 11.45972,-42.34756 10.30359,-40.47406 14.40261,-67.67842 32.5605,-76.69266 11.73048,-5.82342 35.87715,-9.2719 53.65927,-7.66325 29.15969,2.63789 33.16433,6.85922 40.82507,43.03417 7.68935,36.31004 11.32842,40.10937 38.41751,40.10937 27.46748,0 29.92359,-2.73606 29.92359,-33.33437 0,-18.3339 -6.85657,-48.55637 -15.23684,-67.16106 l -20.95114,-25.25525 -95.89576,-4.78571 c -55.8548,-2.78745 -106.14128,7.98887 -111.67944,13.12606 -13.00961,12.06771 -27.36138,285.65521 -20.76362,395.81658 l 16.51562,79.22321 34.35492,16.96631 c 23.24959,11.48189 54.94018,9.43175 66.1317,7.20698 11.19152,-2.22475 38.93114,-4.10301 61.6436,-4.17388 z M -267.24594,515.57065 c -3.8407,-222.06455 8.7633,-266.1275 22.4005,-278.77736 13.6137,-12.62812 44.5338,-10.98612 140.7221,-5.20326 80.730996,-6.37489 133.385396,-16.28169 163.038456,44.70271 29.46533,60.59828 35.40652,127.58683 14.57769,182.57188 -15.08505,39.82229 -12.00455,45.99671 -42.05585,55.00634 -46.0596,13.80908 -45.0673,15.71968 3.30408,26.33103 54.95486,12.05557 33.94305,58.81478 37.12688,173.42958 l 2.49537,89.83127 -106.44533,-0.0475 c -99.957796,8.26188 -20.7439,-19.39446 -84.598196,3.98215 -9.7926,0.0453 -50.7101,-6.95523 -80.2274,-11.06151 l -65.2798,11.71359 z m 105.3759,241.57016 27.597,-0.12887 2.9253,-87.29687 c 2.8852,-86.10139 3.2736,-87.29688 28.3606,-87.29688 25.203196,0 25.461896,0.84428 28.353996,92.54126 l 2.9188,92.54124 42.8647,-2.88499 42.8647,-2.88501 8.0792,-75.5 c 9.9081,-92.59075 1.6722,-112.83858 -50.5586,-124.29656 -33.7721,-7.40865 -38.9134,-12.06686 -38.9134,-35.2565 0,-22.21192 6.0078,-28.52116 35.6093,-37.39596 30.6976997,-9.20342 38.0673997,-17.54913 53.43,-60.50586 17.66994,-49.40834 17.61337,-50.28652 -6.6868,-103.8125 L -9.5326443,270.98069 -103.91254,263.61408 c -75.55099,-5.89697 -97.2358,-4.71744 -108.6953,5.91239 -11.2973,10.47936 -15.3246,64.52702 -19.1018,256.35276 l 0.9279,243.07374 17.8002,-5.84165 c 12.6617,-4.1553 35.93311,-5.89964 51.1115,-5.97051 z m 7.2816,-318.06803 c -5.7207,-13.95717 -9.0411,-44.74701 -7.3788,-68.42188 l 3.0225,-43.04521 37.9677,1.06123 c 56.765896,1.58666 72.300096,17.97206 64.848396,68.40195 -7.7131,52.19944 -20.9003,67.38057 -58.530196,67.38057 -22.6886,0 -31.9376,-5.87807 -39.9296,-25.37666 z M 70.115006,709.76027 c -3.88099,-38.41744 -7.03779,-74.0325 -3.52303,-96.60491 3.51476,-22.57241 0.1851,-102.8954 9.04029,-173.81267 l 16.93553,-135.62908 31.010554,-43.31513 c 25.34537,-35.40208 86.88947,-37.57157 115.67007,-37.45632 19.84844,0.0795 36.83725,-5.80051 68.73636,19.02392 16.17432,12.58713 6.98251,-1.24823 21.01005,37.00848 32.34181,101.28455 36.92487,212.61167 36.93319,310.81092 l -20,198.3961 -57.21205,5.71429 c -128.50404,-11.1573 3.5229,-14.61643 -141.90405,2.72827 -25.89775,0.12458 -44.15969,12.10466 -65.268394,-12.57816 z M 180.54919,751.962 c 10.28212,-9.53769 21.06221,-96.97274 15.40487,-124.94563 -6.35562,-31.42557 -6.01523,-31.77653 27.90273,-28.76843 l 34.33686,3.04525 2.93963,82.57813 c 2.87295,80.70465 3.50771,82.57812 27.9788,82.57812 l 25.03916,0 0,-181.6397 c 0,-170.11598 -1.66706,-186.283 -26.27656,-254.82856 -21.8351,-60.81795 -30.60803,-74.19728 -51.90249,-79.1549 -20.73285,-4.82687 -33.29466,1.14747 -65.78848,31.28873 l -40.16255,37.25477 -5.02353,149.59325 c -2.76296,82.27628 -7.39344,153.15018 -10.28996,157.49754 -2.89652,4.34736 0.78118,29.36678 1.82349,74.64633 1.53031,66.47938 7.33555,66.68483 33.65891,60.55642 14.61295,-3.40208 28.27456,-7.76768 30.35912,-9.70132 z m 15.70265,-243.80938 c -2.94008,-7.107 -3.94098,-35.77341 -2.22422,-63.70312 2.89196,-47.04895 4.98381,-50.78131 28.46102,-50.78131 22.74038,0 26.22118,5.13713 33.9335,50.08079 4.72662,27.54444 6.05792,56.21085 2.95846,63.70313 -7.16175,17.31201 -56.03246,17.8543 -63.12876,0.70054 z M 709.50099,787.6042 c -3.7305,-3.46041 -22.07384,-127.63781 -6.78276,-270.6462 l 5.71426,-275.78311 34.6513,-8.75558 c 52.7113,-13.31896 211.5644,-6.69806 224.6354,5.42656 6.7149,6.22875 17.9231,34.22783 17.9231,48.25193 0,24.27625 5.5238,57.24599 -55.0167,63.58389 -81.8307,8.56674 -76.7398,-4.236 -90.0375,51.74261 l 7.776,16.57425 66.7228,5.71428 69.58,5.71429 0.2107,64.67213 3.0679,41.815 -80.8347,12.32509 c -12.0211,1.83289 -47.3061,0.4121 -59.2933,15.80555 -24.9602,32.05273 2.7548,37.54283 -7.6797,72.40009 l 10.7789,17.49107 59.105,-5.71429 70.5335,17.14286 2.1044,64.33036 c 0.851,26.01506 2.5755,67.45047 -3.8326,71.26396 -14.5667,8.66861 -228.6591,9.50047 -237.8974,0.93101 z m 229.5258,-26.88322 c 10.0456,-3.57574 16.0933,-17.10172 16.0933,-35.99322 l 0,-30.26477 -73.7623,0.60259 -73.7623,0.60261 -0.431,-80.21875 c -0.237,-44.12031 3.4801,-85.21746 8.2603,-91.32701 4.7802,-6.10953 38.4122,-14.06067 74.7379,-17.66917 58.5939,-5.82057 65.6982,-8.70762 62.9585,-25.58507 -2.7382,-16.86814 -11.1595,-19.14392 -74.3069,-20.08083 l -71.2188,-1.05667 -2.0001,-61.15764 c -2.5765,-78.78353 8.5515,-90.48636 94.1254,-98.98705 66.8501,-6.64073 74.951,-11.41288 53.3644,-31.43656 -12.9964,-12.05548 -116.1385,-15.35461 -169.6532,-5.42656 l -31.7941,5.89844 0,242.62239 c 0,133.44232 3.0522,245.45365 6.7828,248.91406 8.4796,7.86576 158.774,8.33445 180.6061,0.56323 z"
       id="path2998-6"
       inkscape:connector-curvature="0"
       sodipodi:nodetypes="cssscssssssscccsscsssccsscssccscccssssssssscssscsssssccsssscccscsscssscccsssssscssscsssscsssscsscssscccccccssscsscsssscssssscsssscccscssssscccccssscccsscccscccssssscsssscsscc"
       inkscape:export-filename="C:\Users\Bennett\Documents\My Dropbox\One Man Army\One Man Army\HighResolutionContent\HUD\Rage Bar Empty.png"
       inkscape:export-xdpi="90"
       inkscape:export-ydpi="90" />
  </g>
</svg>
