<?xml version="1.0" encoding="UTF-8" standalone="no"?>
<!-- Created with Inkscape (http://www.inkscape.org/) -->

<svg
   xmlns:dc="http://purl.org/dc/elements/1.1/"
   xmlns:cc="http://creativecommons.org/ns#"
   xmlns:rdf="http://www.w3.org/1999/02/22-rdf-syntax-ns#"
   xmlns:svg="http://www.w3.org/2000/svg"
   xmlns="http://www.w3.org/2000/svg"
   xmlns:sodipodi="http://sodipodi.sourceforge.net/DTD/sodipodi-0.dtd"
   xmlns:inkscape="http://www.inkscape.org/namespaces/inkscape"
   width="744.09448819"
   height="1052.3622047"
   id="svg2"
   version="1.1"
   inkscape:version="0.48.0 r9654"
   sodipodi:docname="Rage Bar Full.svg">
  <defs
     id="defs4" />
  <sodipodi:namedview
     id="base"
     pagecolor="#ffffff"
     bordercolor="#666666"
     borderopacity="1.0"
     inkscape:pageopacity="0.0"
     inkscape:pageshadow="2"
     inkscape:zoom="0.35"
     inkscape:cx="-79.285714"
     inkscape:cy="452.8699"
     inkscape:document-units="px"
     inkscape:current-layer="layer1"
     showgrid="false"
     inkscape:window-width="1280"
     inkscape:window-height="750"
     inkscape:window-x="-8"
     inkscape:window-y="-8"
     inkscape:window-maximized="1" />
  <metadata
     id="metadata7">
    <rdf:RDF>
      <cc:Work
         rdf:about="">
        <dc:format>image/svg+xml</dc:format>
        <dc:type
           rdf:resource="http://purl.org/dc/dcmitype/StillImage" />
        <dc:title></dc:title>
      </cc:Work>
    </rdf:RDF>
  </metadata>
  <g
     inkscape:label="Layer 1"
     inkscape:groupmode="layer"
     id="layer1">
    <path
       style="fill:#ff0000"
       d="m -1126.4624,710.6483 c -30.1357,-12.2671 -30.5907,-13.5424 -35.918,-100.6867 -6.9141,-113.101 8.4296,-415.6541 21.7063,-428.0121 5.5765,-5.1906 64.8827,-10.9474 131.7917,-12.7928 l 121.6526,-3.3554 15.1906,33.7241 c 8.3549,18.5483 15.1907,57.2184 15.1907,85.9335 0,44.7575 -2.7228,52.2094 -19.0765,52.2094 -10.492,0 -33.0281,2.5883 -50.0801,5.7517 -30.3418,5.629 -31.1564,4.8071 -38.1577,-38.5005 -7.8548,-48.5869 -21.971,-59.3821 -55.7333,-42.6212 -20.004,9.9307 -24.0501,10.1941 -29.7731,55.144 -3.2301,25.3697 -2.121,36.662 -11.413,58.1294 -9.4698,21.8778 -11.9841,61.1482 -2.5317,151.2648 l 8.3703,79.8005 50.8705,0 50.8705,0 3.1285,-40.1094 c 1.8511,-23.7313 -1.2648,-40.1094 -7.6305,-40.1094 -5.9175,0 -10.7591,14.8641 -10.7591,33.0313 0,31.2383 -1.8676,33.0312 -34.406,33.0312 l -34.4061,0 -7.1563,-79.6915 c -3.9361,-43.8304 -3.9786,-88.9792 -0.095,-100.3307 6.5557,-19.1598 11.4646,-20.2122 68.4901,-14.6834 33.7855,3.2756 74.2048,5.9556 89.8205,5.9556 l 28.3923,0 -3.1922,142.2838 c -1.9897,88.6823 -7.4906,146.2709 -14.602,152.8675 -11.553,10.7166 -119.1068,24.9896 -184.4128,24.4726 -19.5851,-0.155 -49.3444,-5.8729 -66.1317,-12.7063 z M -1800.4019,456.843 c 2.9884,-222.0776 5.9061,-263.2703 19.5433,-275.9202 13.6137,-12.6281 33.1053,-13.8433 129.2936,-8.0604 69.3023,2.1965 104.8138,-10.5674 134.4669,50.417 29.4654,60.5983 32.5494,101.8726 11.7206,156.8576 -15.0851,39.8223 -23.4332,48.8538 -53.4845,57.8635 -46.0596,13.8091 -45.0673,24.2911 3.3041,34.9024 54.9549,12.0556 62.235,32.5679 51.4126,144.8582 l -8.9332,92.6884 -63.5882,2.8097 -63.588,2.8097 0,-90.1066 c 0,-53.7794 -4.1018,-90.1066 -10.1741,-90.1066 -6.0291,0 -10.1741,34.6042 -10.1741,84.9375 0,74.57 -2.1733,84.9476 -17.8047,85.0196 -9.7926,0.045 -42.0377,2.7817 -71.656,6.0813 l -53.8512,5.9993 z m 348.7894,188.4754 c -3.881,-38.4175 -4.1806,-88.3183 -0.6659,-110.8907 3.5148,-22.5724 7.5829,-99.5024 9.0403,-170.9555 l 2.6498,-129.9148 39.582,-37.6008 c 31.567,-29.987 46.8895,-37.5716 75.6701,-37.4563 19.8484,0.08 41.7798,3.4973 48.7364,7.5953 6.9565,4.0979 24.1253,38.7518 38.1529,77.0085 32.3418,101.2845 25.4963,172.6116 25.5046,270.8109 l 0,201.2532 -45.7835,0 c -44.5394,0 -45.8273,-0.8334 -47.3973,-30.6718 -0.8876,-16.8696 -0.4821,-52.4849 0.901,-79.1452 3.8347,-73.9114 -15.7881,-69.294 -23.2798,5.4779 -3.5822,35.7529 -9.1227,71.3134 -12.3123,79.0234 -6.377,15.415 -35.6273,24.988 -76.9585,25.1869 -25.8978,0.1246 -27.0168,-2.1811 -33.8398,-69.721 z m 642.2432,63.5582 c -3.7306,-3.4604 -6.7828,-123.9655 -6.7828,-267.7891 l 0,-261.4974 31.7941,-5.8984 c 55.7805,-10.3484 197.27869,-6.6981 210.34969,5.4265 6.71494,6.2288 12.20894,22.7993 12.20894,36.8234 0,24.2763 -3.0478,25.8175 -63.58824,32.1554 -81.83069,8.5667 -95.51929,19.9804 -92.89459,77.4569 l 2.0617,45.1456 69.5799,0 69.57999,0 3.0679,38.9578 3.06784,38.9579 -66.54894,6.6108 c -36.60199,3.6359 -68.42679,9.4627 -70.72189,12.9484 -2.295,3.4857 -5.751,36.0657 -7.6797,72.4001 l -3.5068,66.0625 76.24779,0 76.24794,0 -3.6099,47.1875 c -1.98564,25.9531 -8.85314,50.3076 -15.26124,54.1211 -14.5667,8.6686 -214.37339,9.5005 -223.61169,0.931 z"
       id="path2998-3"
       inkscape:connector-curvature="0"
       sodipodi:nodetypes="cssscssssssssscccsssscsssscsssccssccsssscccssscscscsscssscccsssssscsscscssssscccccssscccs"
       inkscape:export-filename="C:\Users\Bennett\Documents\My Dropbox\One Man Army\One Man Army\HighResolutionContent\HUD\Rage Bar Full.png"
       inkscape:export-xdpi="90"
       inkscape:export-ydpi="90" />
    <path
       style="fill:#ff0000;stroke:#aa0000;stroke-width:2.85714293;stroke-opacity:1"
       d=""
       id="path3044"
       inkscape:connector-curvature="0" />
    <path
       style="fill:#ff0000"
       d="m 380.97936,817.94732 c -30.13573,-12.2671 -30.59066,-13.5424 -35.918,-100.68662 -6.91413,-113.10106 1.50052,-439.86192 18.84915,-445.155 38.77544,-11.83041 100.15824,-10.95149 166.0774,-9.93569 l 153.0812,2.35895 20.90496,45.15266 c 8.5469,18.46054 0.9049,60.07545 0.9049,88.7906 0,44.75749 -24.26754,68.12843 -39.07648,75.06651 -30.49205,14.28572 -10.17097,8.3026 -52.93728,11.46609 -30.77542,2.2765 -62.43468,19.74605 -75.30055,-64.21488 -6.22808,-40.64359 40.88617,-13.66778 4.26667,-22.6212 -21.69432,-5.30423 -20.67938,1.04409 -29.77308,29.42972 -14.31065,44.67013 -4.97807,42.37628 -14.27016,63.8437 119.69587,305.62668 -44.69577,200.70116 -9.45869,22.60109 6.55573,-19.15981 17.17893,-40.21222 74.20442,-34.68341 33.78555,3.27563 71.48216,5.14382 86.96341,3.09854 32.27874,-4.26446 47.52694,7.12922 34.10659,31.42857 l 8.23635,147.99807 c 4.9289,88.56756 -10.34773,154.84234 -17.45916,161.4389 -11.55301,10.71657 -121.96394,10.70385 -187.26991,10.1869 -19.58516,-0.15503 -77.91585,-5.87289 -94.70313,-12.70636 z M -281.53166,546.99923 c -3.8407,-222.06455 8.7633,-266.1275 22.4005,-278.77736 13.6137,-12.62812 44.5338,-10.98612 140.7221,-5.20326 80.731006,-6.37489 133.385406,-16.28169 163.038466,44.70271 29.46533,60.59828 35.40652,127.58683 14.57769,182.57188 -15.08505,39.82229 -12.00455,45.99671 -42.05585,55.00634 -46.0596,13.80908 -45.0673,15.71968 3.30408,26.33103 54.95486,12.05557 33.94305,58.81478 37.12688,173.42958 l 2.49537,89.83127 -106.44533,-0.0475 c -99.957806,8.26188 -20.7439,-19.39446 -84.598206,3.98215 -9.7926,0.0453 -50.7101,-6.95523 -80.2274,-11.06151 l -65.2798,11.71359 z M 55.829296,741.18885 c -3.88099,-38.41744 -7.03779,-74.0325 -3.52303,-96.60491 3.51476,-22.57241 0.1851,-102.8954 9.04029,-173.81267 l 16.93553,-135.62908 31.010544,-43.31513 c 25.34537,-35.40208 86.88947,-37.57157 115.67007,-37.45632 19.84844,0.0795 36.83725,-5.80051 68.73636,19.02392 16.17432,12.58713 6.98251,-1.24823 21.01005,37.00848 32.34181,101.28455 36.92487,212.61167 36.93319,310.81092 l -20,198.3961 -57.21205,5.71429 c -128.50404,-11.1573 3.5229,-14.61643 -141.90405,2.72827 -25.89775,0.12458 -44.159684,12.10466 -65.268384,-12.57816 z m 639.385974,77.84393 c -3.7305,-3.46041 -22.07384,-127.63781 -6.78276,-270.6462 l 5.71426,-275.78311 34.65131,-8.75558 c 52.7113,-13.31896 211.5644,-6.69806 224.6354,5.42656 6.7149,6.22875 17.9231,34.22783 17.9231,48.25193 0,24.27625 5.5238,57.24599 -55.0167,63.58389 -81.8307,8.56674 -76.7398,-4.236 -90.0375,51.74261 l 7.776,16.57425 66.7228,5.71428 69.58,5.71429 0.2107,64.67213 3.0679,41.815 -80.8347,12.32509 c -12.0211,1.83289 -47.3061,0.4121 -59.2933,15.80555 -24.9602,32.05273 2.7548,37.54283 -7.6797,72.40009 l 10.7789,17.49107 59.105,-5.71429 70.5335,17.14286 2.1044,64.33036 c 0.851,26.01506 2.5755,67.45047 -3.8326,71.26396 -14.5667,8.66861 -228.6591,9.50047 -237.8974,0.93101 z"
       id="path2998-6"
       inkscape:connector-curvature="0"
       sodipodi:nodetypes="cssscsssssssccsscssscccssccsssscccscccsscsssccccccccscssssscccccssscccssc"
       inkscape:export-filename="C:\Users\Bennett\Documents\My Dropbox\One Man Army\One Man Army\HighResolutionContent\HUD\Rage Bar Full.png"
       inkscape:export-xdpi="90"
       inkscape:export-ydpi="90" />
  </g>
</svg>
