<?xml version="1.0" encoding="UTF-8" standalone="no"?>
<!-- Created with Inkscape (http://www.inkscape.org/) -->

<svg
   xmlns:dc="http://purl.org/dc/elements/1.1/"
   xmlns:cc="http://creativecommons.org/ns#"
   xmlns:rdf="http://www.w3.org/1999/02/22-rdf-syntax-ns#"
   xmlns:svg="http://www.w3.org/2000/svg"
   xmlns="http://www.w3.org/2000/svg"
   xmlns:sodipodi="http://sodipodi.sourceforge.net/DTD/sodipodi-0.dtd"
   xmlns:inkscape="http://www.inkscape.org/namespaces/inkscape"
   width="744.09448819"
   height="1052.3622047"
   id="svg3776"
   version="1.1"
   inkscape:version="0.48.0 r9654"
   inkscape:export-filename="C:\Users\Bennett\Pictures\skull.png"
   inkscape:export-xdpi="90"
   inkscape:export-ydpi="90"
   sodipodi:docname="New document 4">
  <defs
     id="defs3778">
    <inkscape:perspective
       sodipodi:type="inkscape:persp3d"
       inkscape:vp_x="0 : 526.18109 : 1"
       inkscape:vp_y="0 : 1000 : 0"
       inkscape:vp_z="744.09448 : 526.18109 : 1"
       inkscape:persp3d-origin="372.04724 : 350.78739 : 1"
       id="perspective3797" />
  </defs>
  <sodipodi:namedview
     id="base"
     pagecolor="#ffffff"
     bordercolor="#666666"
     borderopacity="1.0"
     inkscape:pageopacity="0.0"
     inkscape:pageshadow="2"
     inkscape:zoom="0.7"
     inkscape:cx="375"
     inkscape:cy="577.14286"
     inkscape:document-units="px"
     inkscape:current-layer="layer1"
     showgrid="false"
     inkscape:window-width="1280"
     inkscape:window-height="750"
     inkscape:window-x="-8"
     inkscape:window-y="-8"
     inkscape:window-maximized="1" />
  <metadata
     id="metadata3781">
    <rdf:RDF>
      <cc:Work
         rdf:about="">
        <dc:format>image/svg+xml</dc:format>
        <dc:type
           rdf:resource="http://purl.org/dc/dcmitype/StillImage" />
        <dc:title></dc:title>
      </cc:Work>
    </rdf:RDF>
  </metadata>
  <g
     inkscape:label="Layer 1"
     inkscape:groupmode="layer"
     id="layer1">
    <path
       style="fill:#000000"
       d="m 181.07141,614.30316 c 0,-55.11803 0.3364,-82.85111 1,-82.44098 0.55,0.33992 1,1.17118 1,1.84725 0,1.19175 8.21978,8.65275 9.53273,8.65275 0.35849,0 1.78737,0.89323 3.17527,1.98495 3.37558,2.65524 7.61544,3.77285 21.292,5.6125 10.11905,1.36112 14.26653,1.32992 21.68686,-0.16314 1.95415,-0.3932 15.49461,3.44634 17.73409,5.02869 3.91702,2.76764 5.57905,4.25803 5.57905,5.00289 0,0.40997 1.05539,1.99966 2.34532,3.53265 1.28993,1.533 3.18772,5.72872 4.21732,9.32384 1.71752,5.99719 2.13179,6.58531 5.02043,7.12723 1.73165,0.32485 3.88385,0.30844 4.78269,-0.0365 1.31176,-0.50337 1.63534,0.0353 1.63982,2.72987 0.006,3.7521 1.82626,11.08743 2.94194,11.85699 1.26273,0.871 3.01428,7 2.00046,7 -0.52139,0 -0.94798,2.925 -0.94798,6.5 0,3.66667 -0.4359,6.5 -1,6.5 -0.55,0 -1,1.52254 -1,3.38342 0,2.82027 -0.41861,3.46345 -2.51503,3.8642 -2.08266,0.39813 -2.60547,0.0314 -3.04111,-2.13342 -0.28934,-1.43781 -1.47011,-4.5267 -2.62393,-6.8642 -1.53492,-3.10954 -2.69855,-4.24997 -4.33645,-4.24997 -1.23122,0 -2.79879,-0.675 -3.48348,-1.5 -0.68469,-0.825 -1.68733,-1.5 -2.22809,-1.5 -0.54076,0 -2.32019,-1.125 -3.95428,-2.5 -1.63409,-1.375 -3.825,-2.5 -4.86867,-2.5 -2.69204,0 -5.09753,5.16172 -4.54217,9.74661 0.25005,2.06436 0.7486,8.25339 1.1079,13.75339 0.35929,5.5 1.35671,12.475 2.21649,15.5 1.15018,4.04675 1.51876,9.49454 1.39492,20.61785 -0.19685,17.68055 1.05837,22.17788 7.53869,27.01035 2.10937,1.57299 4.198,3.43038 4.64142,4.12754 0.44342,0.69716 2.01382,2.38732 3.48978,3.75591 l 2.68357,2.48835 -46.23978,0 -46.23978,0 z m 275.69492,75.30902 c 0.29739,-4.2625 1.38769,-9.7197 2.42289,-12.12712 1.0352,-2.40741 1.88219,-5.38212 1.88219,-6.61045 0,-1.22834 1.125,-3.89112 2.5,-5.91729 1.375,-2.02618 2.5,-4.05887 2.5,-4.5171 0,-0.45823 0.67063,-1.38972 1.49029,-2.06998 2.11037,-1.75145 8.63454,-14.7411 9.7981,-19.50806 1.27625,-5.22863 1.2535,-10.38903 -0.11121,-25.22822 -0.93468,-10.16321 -1.55122,-12.90404 -3.65089,-16.23013 -1.38946,-2.20105 -2.52629,-4.67674 -2.52629,-5.50154 0,-0.8248 -0.631,-3.19624 -1.40222,-5.26987 -0.77123,-2.07363 -1.65497,-4.55218 -1.96388,-5.50788 -0.47684,-1.47528 -1.07304,-1.21106 -3.94879,1.75 -4.0788,4.19981 -9.68511,5.00675 -9.68511,1.39402 0,-1.25262 -0.8034,-2.30371 -2,-2.61663 -1.56687,-0.40975 -2,-1.36402 -2,-4.40638 0,-4.05283 -0.56588,-4.44659 -5.75,-4.00105 -1.94579,0.16723 -2.25,-0.28496 -2.25,-3.34447 0,-2.44449 -0.45387,-3.53785 -1.46862,-3.53785 -0.86421,0 -1.24226,-0.58986 -0.91861,-1.43328 0.3025,-0.78831 -0.56147,-3.06897 -1.91994,-5.06814 -2.70945,-3.9873 -2.54899,-7.09207 0.41514,-8.03285 2.55505,-0.81094 2.39677,-3.76071 -0.26714,-4.9786 -3.60756,-1.64931 -3.88003,-4.54721 -1.18348,-12.58713 2.5327,-7.55136 6.41368,-12.9 9.36026,-12.9 0.90389,0 3.8572,-1.12312 6.56291,-2.49581 2.70571,-1.3727 5.30472,-2.4977 5.77558,-2.5 0.47085,-0.002 2.49585,-1.27035 4.5,-2.81787 3.4049,-2.62914 15.10106,-8.18632 17.22969,-8.18632 0.52467,0 2.63251,-1.0372 4.68408,-2.30489 2.05157,-1.26768 6.58351,-3.15131 10.07098,-4.18583 4.69287,-1.39209 6.96699,-2.70186 8.75,-5.03951 2.76428,-3.62415 2.9376,-5.18699 0.87735,-7.9109 -2.47516,-3.27245 -1.79983,-8.8925 1.75589,-14.61246 2.61551,-4.20746 3.29651,-6.46793 3.60769,-11.97514 0.40319,-7.13547 -0.49589,-11.11871 -4.43745,-19.65934 -1.31688,-2.85345 -2.39433,-6.79989 -2.39433,-8.76988 0,-1.96998 -1.13151,-6.36645 -2.51447,-9.76993 -2.34266,-5.76532 -2.50063,-7.21591 -2.31209,-21.23013 0.16761,-12.45795 -0.0876,-15.59177 -1.48553,-18.24233 -1.9653,-3.72627 -2.12975,-8.14098 -0.57358,-15.39716 1.25271,-5.8412 -0.0181,-12.26784 -2.62347,-13.26763 -0.81997,-0.31466 -1.49086,-1.26122 -1.49086,-2.10349 0,-0.84226 -0.43261,-1.53138 -0.96136,-1.53138 -2.20248,0 -8.96548,-8.34013 -12.2996,-15.16787 -5.45505,-11.17107 -5.68885,-12.84204 -5.02608,-35.9205 l 0.60054,-20.91163 20.84325,0 20.84325,0 0,210 0,210 -29.92289,0 -29.92288,0 z M 317.9038,516.0973 c -5.46684,-4.82219 -6.41277,-8.62124 -5.00299,-20.09293 0.64383,-5.23894 1.17547,-11.46414 1.18142,-13.83377 0.006,-2.36963 0.68096,-6.51744 1.5,-9.21735 0.81905,-2.69991 1.48918,-7.48384 1.48918,-10.63094 0,-8.09068 6.56687,-24.93752 9.72695,-24.95381 0.67482,-0.003 1.96407,-1.13132 2.86501,-2.50632 0.90093,-1.375 2.3144,-2.5 3.14103,-2.5 0.82664,0 3.04055,-1.35 4.91979,-3 1.87925,-1.65 4.04781,-3 4.81904,-3 1.66086,0 8.507,6.9772 8.51951,8.68261 0.005,0.65044 0.81694,1.43915 1.80482,1.75269 2.29679,0.72897 8.20385,11.84336 8.20385,15.4359 0,1.50414 1.3254,4.53705 2.94533,6.73982 1.61993,2.20276 4.15735,6.90391 5.63872,10.447 1.48137,3.54309 3.75597,7.4329 5.05467,8.64401 1.29871,1.21112 2.36128,2.75712 2.36128,3.43555 0,0.67844 0.92814,2.22148 2.06254,3.429 3.11809,3.31905 4.85083,12.17393 3.69499,18.8827 -0.89905,5.21838 -1.12765,5.55072 -3.81797,5.55072 -19.35295,2.60754 -9.42913,5.2842 -22.59013,7.70892 -14.03419,-1.64405 -13.63023,-4.26129 -18.39426,-4.30028 -4.61994,0.32993 -3.93211,-0.6486 -10.95661,3.07319 -6.61321,0.27358 -3.2023,4.0163 -9.16617,0.25329 z M 212.92874,487.97302 c -9.13787,-3.26457 -15.75294,-9.86071 -17.95356,-17.90219 -0.63345,-2.31476 -2.22094,-6.58345 -3.52775,-9.48599 -1.30681,-2.90253 -2.37602,-5.49897 -2.37602,-5.76987 0,-0.27089 -1.03834,-2.17109 -2.30742,-4.22266 -5.00398,-8.08932 -5.69258,-11.69096 -5.69258,-29.77454 l 0,-16.97754 3.13693,-2.48903 c 1.72532,-1.36896 3.85032,-3.27652 4.72224,-4.23902 0.87192,-0.9625 2.01237,-1.75 2.53433,-1.75 0.52196,0 1.65945,-0.62933 2.52776,-1.39852 0.86831,-0.76919 3.20459,-2.30187 5.19173,-3.40597 1.98715,-1.10409 4.46215,-2.47842 5.5,-3.05407 12.12347,-6.7243 16.10211,-7.95885 29.49,-9.15061 7.34255,-0.65361 15.54726,-0.89692 18.2327,-0.54069 6.10465,0.80981 13.55704,3.29974 15.40392,5.14661 0.77179,0.77179 2.0461,1.40325 2.83182,1.40325 0.78571,0 1.42857,0.41125 1.42857,0.9139 0,0.50264 3.0375,3.2901 6.75,6.19436 8.41611,6.58386 12.06204,10.11775 16.57355,16.06426 5.47299,7.21381 6.56014,9.98135 7.25321,18.46432 0.92335,11.30169 -1.72549,18.77789 -9.4178,26.58112 -3.11243,3.15731 -6.20148,5.74989 -6.86455,5.7613 -0.66308,0.0114 -2.86337,1.14574 -4.88955,2.52074 -2.02617,1.375 -4.90928,2.5 -6.4069,2.5 -2.48302,0 -4.93408,1.49765 -13.41418,8.19638 -10.31613,8.14905 -14.8949,10.45547 -25.58378,12.88705 -1.925,0.43791 -5.975,1.7086 -9,2.82374 -6.39629,2.35795 -9.13128,2.49403 -14.14267,0.70367 z m 219.14267,-36.31501 c -5.19687,-0.74651 -16.68852,-4.47829 -21.5,-6.98186 -3.9096,-2.0343 -7.08822,-2.74725 -14.57549,-3.26922 -15.4552,-1.07744 -19.54644,-4.46545 -22.99779,-19.04475 -0.71611,-3.025 -2.34257,-7.17856 -3.61437,-9.23013 -1.27179,-2.05157 -2.31235,-4.32407 -2.31235,-5.05 0,-0.72593 -0.47734,-1.79721 -1.06076,-2.38063 -1.49392,-1.49392 -1.36736,-8.26031 0.22279,-11.91095 1.50559,-3.45653 6.27624,-9.42829 7.53196,-9.42829 0.45271,0 2.39426,-1.78833 4.31456,-3.97407 1.9203,-2.18575 4.95395,-5.61731 6.74145,-7.6257 1.7875,-2.00839 3.25,-4.12717 3.25,-4.7084 0,-0.58124 3.2625,-4.16418 7.25,-7.9621 7.51127,-7.15416 14.94634,-11.72973 19.06021,-11.72973 1.30718,0 4.99258,-0.9 8.18979,-2 7.27734,-2.50377 14.05327,-2.56771 18,-0.16986 5.64413,3.42913 12.65173,5.16986 20.81212,5.16986 10.53044,0 14.98669,1.48353 20.96303,6.97878 4.96483,4.56518 4.97146,4.57978 5.03268,11.08707 0.0505,5.37339 -0.36062,7.08654 -2.34503,9.7706 -2.24662,3.03871 -2.41049,4.13113 -2.46899,16.45914 -0.0445,9.37431 -0.57769,15.08981 -1.83823,19.70441 -3.26356,11.94724 -3.65558,13.71648 -3.65558,16.49799 0,2.39486 -3.16784,9.02188 -5.02016,10.50201 -0.34415,0.275 -0.93267,1.33022 -1.30783,2.34494 -0.37516,1.01472 -1.57983,2.0797 -2.67706,2.36663 -1.09722,0.28693 -1.99495,0.87035 -1.99495,1.29648 0,0.42614 -1.6875,1.44842 -3.75,2.27176 -3.51164,1.40181 -23.0061,2.05658 -30.25,1.01602 z"
       id="path3795"
       inkscape:connector-curvature="0"
       sodipodi:nodetypes="ssssssssssssccsssssssssssssssssssscccssssssssssssssssssssssssssscssssssssssssssssssscccccccscscsscsssscsssssssscccccsssssscssssssssssssssscsssssssssssssssssssssssssssssssssss" />
  </g>
</svg>
