<?xml version="1.0" encoding="UTF-8" standalone="no"?>
<!-- Created with Inkscape (http://www.inkscape.org/) -->

<svg
   xmlns:dc="http://purl.org/dc/elements/1.1/"
   xmlns:cc="http://creativecommons.org/ns#"
   xmlns:rdf="http://www.w3.org/1999/02/22-rdf-syntax-ns#"
   xmlns:svg="http://www.w3.org/2000/svg"
   xmlns="http://www.w3.org/2000/svg"
   xmlns:sodipodi="http://sodipodi.sourceforge.net/DTD/sodipodi-0.dtd"
   xmlns:inkscape="http://www.inkscape.org/namespaces/inkscape"
   width="744.09448819"
   height="1052.3622047"
   id="svg2"
   version="1.1"
   inkscape:version="0.48.0 r9654"
   sodipodi:docname="New document 1">
  <defs
     id="defs4" />
  <sodipodi:namedview
     id="base"
     pagecolor="#ffffff"
     bordercolor="#666666"
     borderopacity="1.0"
     inkscape:pageopacity="0.0"
     inkscape:pageshadow="2"
     inkscape:zoom="0.49497475"
     inkscape:cx="525.34371"
     inkscape:cy="251.02247"
     inkscape:document-units="px"
     inkscape:current-layer="layer1"
     showgrid="false"
     inkscape:window-width="1280"
     inkscape:window-height="750"
     inkscape:window-x="-8"
     inkscape:window-y="-8"
     inkscape:window-maximized="1" />
  <metadata
     id="metadata7">
    <rdf:RDF>
      <cc:Work
         rdf:about="">
        <dc:format>image/svg+xml</dc:format>
        <dc:type
           rdf:resource="http://purl.org/dc/dcmitype/StillImage" />
        <dc:title></dc:title>
      </cc:Work>
    </rdf:RDF>
  </metadata>
  <g
     inkscape:label="Layer 1"
     inkscape:groupmode="layer"
     id="layer1">
    <path
       style="fill:#ec1b23;stroke:none;stroke-width:0.1;stroke-miterlimit:4;stroke-dasharray:none"
       d="m -189.47983,780.9344 c 0,-99.53842 0.0467,-102.05256 1.88509,-101.46908 1.35128,0.42888 2.61523,-0.33077 4.46348,-2.68261 1.41812,-1.80451 3.21358,-3.89967 3.98991,-4.65592 0.77634,-0.75625 2.18422,-2.1773 3.12863,-3.15789 5.31312,-5.5167 10.96398,-10.92911 15.02435,-14.39037 5.49709,-4.686 18.61562,-24.23645 20.51728,-30.57674 0.74233,-2.475 2.16904,-6.16957 3.17047,-8.21016 1.00144,-2.04059 1.82768,-4.74059 1.8361,-6 0.008,-1.25941 0.42716,-2.94081 0.93052,-3.73643 0.75527,-1.1938 1.27104,-1.01904 2.95142,1 1.11992,1.34562 2.05118,3.1734 2.06948,4.06173 0.0183,0.88833 0.93327,2.75931 2.03327,4.15773 1.1,1.39842 2,3.84324 2,5.43293 0,1.58968 1.8,6.56263 4,11.05099 2.95787,6.03453 4.00379,9.40894 4.01455,12.95193 0.0271,8.92387 4.76046,18.29214 11.58062,22.92042 2.0394,1.38398 7.35228,3.68808 11.80641,5.12023 4.45413,1.43216 8.77424,3.16811 9.600247,3.85767 0.82601,0.68956 2.79925,1.74703 4.38498,2.34992 3.2707,1.24352 5.72309,0.0827 11.30367,-5.35066 7.25508,-7.06365 6.65308,-7.06699 10.16577,0.0564 1.72906,3.50635 3.14375,7.16052 3.14375,8.12037 0,0.95985 0.94715,4.21383 2.10478,7.23107 1.15763,3.01723 2.76747,7.28588 3.57742,9.48588 0.80995,2.2 2.07762,4.675 2.81704,5.5 0.73942,0.825 1.49208,3.07131 1.67258,4.99181 0.45214,4.81075 3.08562,5.09213 7.68906,0.82157 4.43089,-4.1105 10.88233,-9.08609 13.7808,-10.62828 1.17793,-0.62674 3.54145,-3.61978 5.25228,-6.65121 1.93345,-3.42588 4.62348,-6.46672 7.10832,-8.03533 3.33214,-2.10349 3.99772,-3.06727 3.99772,-5.78886 0,-2.02773 0.75798,-3.91422 2,-4.97767 1.86014,-1.5927 2.00046,-2.95441 2.00659,-19.47224 l 0.007,-17.75979 1.98682,3 c 1.09275,1.65 1.98979,3.95181 1.99341,5.11514 0.004,1.16333 0.90659,3.25931 2.00659,4.65773 1.1,1.39842 2,3.48064 2,4.62715 0,1.1465 1.35,3.28741 3,4.75756 1.65,1.47016 3,3.43795 3,4.37286 0,0.93491 0.9104,2.85723 2.02311,4.27181 1.92664,2.44932 6.00689,10.93425 9.95318,20.69775 5.59029,13.83091 7.00228,16.51241 8.84791,16.80308 2.59382,0.4085 9.90075,-7.29538 11.19491,-11.80308 0.55267,-1.925 2.34946,-5.26766 3.99287,-7.42814 1.64341,-2.16048 2.98802,-4.50796 2.98802,-5.21662 0,-0.70866 2.025,-3.56852 4.5,-6.35524 2.475,-2.78672 4.500003,-5.88894 4.500003,-6.89383 0,-1.00489 1.19845,-3.57737 2.66322,-5.71662 1.46477,-2.13925 2.98774,-5.46455 3.38438,-7.38955 1.93206,-9.3768 9.76763,-27.98833 13.0512,-31 3.16461,-2.90257 6.9012,-9.96733 6.9012,-13.0481 0,-1.20683 2.27231,-4.49104 5.25,-7.5879 l 5.25,-5.46011 7.87026,0.29806 7.87026,0.29805 -4.55852,3.2678 c -2.50719,1.79729 -4.84622,4.17425 -5.19785,5.28213 -0.35163,1.10788 -1.71111,3.08612 -3.02107,4.39608 -3.19016,3.19017 -3.97217,6.87195 -2.52604,11.89289 0.65917,2.2886 1.64545,5.7361 2.19174,7.6611 1.73797,6.12421 4.07352,10.86365 5.65199,11.46937 0.84158,0.32294 3.17188,-0.55055 5.17844,-1.9411 2.00656,-1.39055 4.40678,-2.52827 5.33381,-2.52827 0.92704,0 4.05285,-0.89977 6.94625,-1.9995 2.8934,-1.09972 5.37323,-1.99972 5.51073,-2 0.1375,-2.7e-4 0.25,1.73881 0.25,3.86464 0,2.35095 0.78351,4.86122 2,6.40773 1.1,1.39842 2,3.10003 2,3.78135 0,2.04013 6.66844,11.44748 10.49811,14.80998 3.46625,3.0434 3.85122,3.1358 13.0652,3.1358 8.56126,0 10.07744,-0.29466 15.43669,-3 3.26863,-1.65 6.60528,-3 7.41478,-3 0.8095,0 2.05983,-0.80807 2.77852,-1.79571 0.71868,-0.98764 3.1067,-2.86926 5.3067,-4.18138 2.2,-1.31211 5.6888,-3.87904 7.75288,-5.70429 2.06409,-1.82524 4.19244,-3.31862 4.72968,-3.31862 0.53723,0 1.88594,-1.78207 2.99712,-3.96016 1.60916,-3.15423 1.50588,-5.91905 2.02032,-13.5 0.34563,-5.0933 10.8393,-4.86317 0.75,-9.51939 -0.6296,-0.29056 6.15567,8.11304 8.95213,13.26489 0.66117,1.21806 2.35673,3.56466 3.76791,5.21466 1.41118,1.65 4.29935,5.025 6.41816,7.5 2.1188,2.475 4.81545,6.3 5.99256,8.5 1.1771,2.2 2.53963,4.675 3.02785,5.5 0.48821,0.825 1.62994,3.30849 2.53718,5.51888 0.90723,2.21038 3.65307,6.20102 6.10186,8.86809 2.44879,2.66707 4.45235,5.264 4.45235,5.77096 0,0.50696 0.9,2.68589 2,4.84207 1.1,2.15618 2,5.00256 2,6.3253 0,1.32274 0.95114,3.61416 2.11364,5.09204 1.1625,1.47788 3.11442,5.47607 4.33759,8.88486 1.85368,5.16593 2.64544,6.24838 4.75557,6.5016 3.04584,0.36551 10.67672,-5.63104 13.43018,-10.5538 2.34976,-4.20101 3.36302,-4.11368 3.36302,0.28984 0,1.94691 0.86365,5.20941 1.91923,7.25 2.81557,5.44295 10.88095,12.65657 15.90852,14.22849 2.5933,0.81082 5.19833,2.53341 6.5,4.29816 1.19474,1.61978 4.24546,5.13621 6.77939,7.81428 3.98904,4.21596 5.12942,4.86679 8.5,4.85103 2.64799,-0.0124 5.30006,-0.97172 8.29334,-3 2.42027,-1.63999 5.16053,-2.9818 6.08949,-2.9818 2.0961,0 4.01003,4.01375 4.01003,8.40955 0,2.17827 1.02898,4.61024 3,7.09045 1.65,2.07626 3,4.50698 3,5.40162 0,0.89464 0.94732,4.09526 2.10515,7.1125 1.15784,3.01723 2.65146,6.94587 3.31917,8.73031 0.6677,1.78443 1.9495,4.03443 2.84843,5 0.89893,0.96556 2.5553,2.76807 3.68083,4.00557 1.79099,1.96916 3.02813,2.25 9.91156,2.25 6.35095,0 8.35464,-0.38504 10.40773,-2 1.39842,-1.1 3.23794,-2 4.08781,-2 2.54368,0 6.56248,-2.19228 7.15255,-3.90176 0.30342,-0.87903 1.99957,-2.5075 3.76922,-3.61881 2.78596,-1.74954 7.16175,-7.75849 17.62246,-24.19962 3.98585,-6.26456 5.73533,-17.09656 6.90939,-42.77981 0.71226,-15.58092 1.176,-16.4217 4.08192,-7.40064 0.67665,2.10055 3.95158,6.43298 7.86472,10.40427 3.68789,3.7427 8.73787,9.75497 11.22216,13.3606 3.82101,5.5457 5.27168,6.82458 9.41608,8.30107 3.11643,1.11027 5.4817,1.42907 6.5,0.8761 2.88651,-1.56745 6.96496,-6.47015 8.56119,-10.2914 0.86156,-2.0625 1.98011,-3.75 2.48566,-3.75 0.50556,0 1.23642,-1.0125 1.62414,-2.25 0.38772,-1.2375 1.54305,-3.32319 2.56739,-4.63486 1.02434,-1.31167 1.88405,-3.33667 1.91047,-4.5 0.0264,-1.16333 0.81392,-3.51859 1.75,-5.23391 0.93608,-1.71533 2.77503,-5.09033 4.08655,-7.5 1.31152,-2.40968 3.67402,-5.85939 5.25,-7.66603 1.57598,-1.80663 2.86542,-4.28799 2.86542,-5.51411 0,-1.22613 0.9,-4.69162 2,-7.70109 1.67367,-4.57896 2,-7.96235 2,-20.73588 -4.1e-4,-8.39529 0.26611,-15.26414 0.59186,-15.26414 0.32575,0 1.73644,0.9 3.13486,2 2.14927,1.69061 4.05678,2 12.331,2 9.12013,0 10.0026,-0.18022 12.92548,-2.63966 1.81467,-1.52695 3.50306,-2.26464 4.00531,-1.75 0.47754,0.48931 1.07688,6.96466 1.33188,14.38966 0.255,7.425 0.9828,15.75 1.61733,18.5 0.63453,2.75 1.51001,7.025 1.9455,9.5 0.43549,2.475 1.50256,6.075 2.37126,8 0.8687,1.925 2.14003,5.00766 2.82517,6.85035 0.68514,1.84269 2.63491,5.10174 4.33283,7.24233 1.69791,2.14059 4.14576,5.25983 5.43967,6.93165 3.62656,4.68577 9.03406,6.97567 16.47274,6.97567 4.94031,0 7.00022,-0.46822 9.00794,-2.04749 3.72853,-2.93286 13.66441,-18.23238 13.67943,-21.06393 0.007,-1.31372 1.35696,-5.03949 3,-8.2795 1.64303,-3.24001 2.98733,-6.52585 2.98733,-7.30188 0,-0.77603 0.85643,-3.07512 1.90319,-5.10908 1.04675,-2.03397 2.70062,-5.49812 3.67527,-7.69812 1.20669,-2.72378 1.89586,-3.45837 2.16004,-2.30241 0.21338,0.93368 -0.0905,2.59159 -0.67527,3.68426 -1.76264,3.29353 -1.26573,11.27376 0.92581,14.86815 l 1.98156,3.25 12.7647,0.003 c 9.52289,0.002 14.54247,-0.48622 19.7647,-1.92381 3.85,-1.05984 9.7,-2.45418 13,-3.09853 3.3,-0.64435 7.03367,-1.57864 8.29705,-2.07619 1.26338,-0.49755 3.61086,-0.90464 5.21662,-0.90464 2.04293,0 4.44093,-1.35118 7.98633,-4.5 2.78672,-2.475 5.50174,-4.5 6.03338,-4.5 0.53164,0 0.96662,2.26793 0.96662,5.03984 0,3.06639 0.78314,6.57491 2,8.96016 1.1,2.15618 2,4.7321 2,5.72428 0,2.75203 3.75382,12.43757 6.00161,15.48523 1.09912,1.49023 1.99839,3.64056 1.99839,4.77851 0,1.13796 1.35,4.74335 3,8.01198 1.65,3.26863 3,6.61578 3,7.4381 0,0.82233 1.9125,3.74341 4.25,6.49129 2.3375,2.74788 5.30865,6.3773 6.60256,8.06537 5.03218,6.56517 16.13806,9.16026 21.42031,5.00524 1.39842,-1.1 3.20401,-2 4.01241,-2 2.83808,0 3.41916,-1.48622 5.6692,-14.5 0.47546,-2.75 1.35522,-6.6875 1.955,-8.75 4.31497,-14.83802 4.7944,-17.07192 7.88702,-36.75 0.94461,-6.0105 3.94237,-11.9837 6.01924,-11.99368 1.9948,-0.01 5.52569,2.08764 6.99096,4.15238 0.71869,1.01271 2.06869,1.83311 3,1.8231 1.76333,-0.019 7.6346,-3.71331 13.7028,-8.62218 9.608,-7.77238 11.9566,-10.18778 13.67918,-14.0682 1.02755,-2.31472 2.3502,-4.50643 2.93923,-4.87047 0.58903,-0.36404 2.27032,-3.19518 3.7362,-6.29142 1.46588,-3.09624 3.44613,-6.74216 4.40056,-8.10204 0.99735,-1.42102 1.73533,-4.30853 1.73533,-6.78983 0,-2.37454 0.9,-6.08148 2,-8.23766 1.1,-2.15618 2,-4.61325 2,-5.46016 0,-1.12981 1.06512,-1.53984 4,-1.53984 3.97674,0 4,0.0225 4,3.86514 0,2.19931 0.78503,4.89299 1.82146,6.25 1.0018,1.31167 2.61844,4.97152 3.59244,8.133 0.9741,3.16148 2.2072,6.0177 2.7403,6.34714 0.533,0.32945 1.3803,1.68029 1.8827,3.00186 1.6592,4.36394 4.521,2.97368 9.4631,-4.59714 2.5132,-3.85 4.8913,-6.99715 5.2847,-6.99368 0.3934,0.003 1.5078,1.24098 2.4763,2.75 9.5928,14.94574 22.9358,30.58729 31.6221,37.06974 1.7143,1.27933 3.1169,3.17617 3.1169,4.2152 0,1.03903 1.35,3.42671 3,5.30596 1.65,1.87924 3.0065,4.2574 3.0146,5.2848 0.048,6.1061 10.3772,26.68231 15.8997,31.67156 2.2503,2.03303 4.5098,3.69642 5.0212,3.69642 0.5113,0 1.2187,0.91051 1.5719,2.02337 0.9532,3.00316 11.4764,7.97663 16.8776,7.97663 4.0601,0 4.7073,-0.36079 7.5285,-4.197 1.6976,-2.30835 3.0865,-4.9818 3.0865,-5.94099 0,-0.95918 0.4643,-2.03091 1.0317,-2.3816 0.5674,-0.35069 3.7687,-6.11475 7.1139,-12.80902 3.3452,-6.69426 6.2677,-12.37066 6.4945,-12.61421 0.2267,-0.24355 2.9879,2.06778 6.1361,5.13628 6.5819,6.41554 7.3105,6.8427 17.50923,10.2663 9.3139,3.12658 10.8241,3.14841 14.3879,0.20794 3.6107,-2.97914 8.1275,-5.38955 11.3752,-6.0704 4.9618,-1.04019 15.969,-10.50237 20.9515,-18.01058 1.375,-2.07203 5.2796,-6.6105 8.677,-10.08549 3.3973,-3.47499 6.8924,-7.70174 7.7669,-9.39277 1.8207,-3.52089 6.1714,-6.10846 10.2706,-6.10846 1.5475,0 5.276,-0.9 8.2855,-2 3.0095,-1.1 5.9953,-2 6.6352,-2 1.4072,0 2.2444,5.63946 3.1682,21.34012 0.6674,11.34424 0.8141,11.94104 3.5024,14.25 2.4441,2.09924 3.7975,2.40753 10.5,2.39168 6.8723,-0.0163 8.1643,-0.33672 12.0947,-3 2.4202,-1.63999 5.2327,-2.9818 6.25,-2.9818 1.0172,0 1.8495,-0.64844 1.8495,-1.44098 0,-0.79254 0.45,-1.7191 1,-2.05902 0.6643,-0.41054 1,34.98962 1,105.44098 l 0,106.05919 -640.00003,0 -640,0 z"
       id="path3045"
       inkscape:connector-curvature="0"
       sodipodi:nodetypes="sssssssscssssssssssssssssssssssssccscssssssssssssssssscccssssssssscssssssssssssssssssssssssssssssssssssssssssssssssssssssssssscssssscsssssssssssssscsssssssccsssssssssssssssssssscscssssssssssscccsccssscsscsssssccssssccssssssssscscccs"
       inkscape:export-filename="C:\Users\Bennett\Documents\My Dropbox\One Man Army\One Man Army\HighResolutionContent\Sprites\Rage Overlay.png"
       inkscape:export-xdpi="90"
       inkscape:export-ydpi="90" />
  </g>
</svg>
