<?xml version="1.0" encoding="UTF-8" standalone="no"?>
<!-- Created with Inkscape (http://www.inkscape.org/) -->

<svg
   xmlns:dc="http://purl.org/dc/elements/1.1/"
   xmlns:cc="http://creativecommons.org/ns#"
   xmlns:rdf="http://www.w3.org/1999/02/22-rdf-syntax-ns#"
   xmlns:svg="http://www.w3.org/2000/svg"
   xmlns="http://www.w3.org/2000/svg"
   xmlns:sodipodi="http://sodipodi.sourceforge.net/DTD/sodipodi-0.dtd"
   xmlns:inkscape="http://www.inkscape.org/namespaces/inkscape"
   width="744.09448819"
   height="1052.3622047"
   id="svg2"
   version="1.1"
   inkscape:version="0.48.0 r9654"
   sodipodi:docname="Base.svg"
   inkscape:export-filename="C:\Users\Bennett\Documents\My Dropbox\One Man Army\One Man Army\HighResolutionContent\Sprites\Enemies\Heli0\Base.png"
   inkscape:export-xdpi="36.841141"
   inkscape:export-ydpi="36.841141">
  <defs
     id="defs4" />
  <sodipodi:namedview
     id="base"
     pagecolor="#ffffff"
     bordercolor="#666666"
     borderopacity="1.0"
     inkscape:pageopacity="0.0"
     inkscape:pageshadow="2"
     inkscape:zoom="0.35"
     inkscape:cx="435.61001"
     inkscape:cy="603.68378"
     inkscape:document-units="px"
     inkscape:current-layer="layer1"
     showgrid="false"
     inkscape:window-width="1280"
     inkscape:window-height="750"
     inkscape:window-x="-8"
     inkscape:window-y="-8"
     inkscape:window-maximized="1" />
  <metadata
     id="metadata7">
    <rdf:RDF>
      <cc:Work
         rdf:about="">
        <dc:format>image/svg+xml</dc:format>
        <dc:type
           rdf:resource="http://purl.org/dc/dcmitype/StillImage" />
        <dc:title></dc:title>
      </cc:Work>
    </rdf:RDF>
  </metadata>
  <g
     inkscape:label="Layer 1"
     inkscape:groupmode="layer"
     id="layer1">
    <path
       style="fill:#ffffff;fill-opacity:1;stroke:none"
       d=""
       id="path3867"
       inkscape:connector-curvature="0" />
    <path
       style="fill:#ffffff;fill-opacity:1;stroke:none"
       d=""
       id="path3871"
       inkscape:connector-curvature="0" />
    <path
       style="fill:#cccccc;fill-opacity:1;stroke:none"
       d=""
       id="path3881"
       inkscape:connector-curvature="0" />
    <g
       id="g3921"
       transform="translate(100,11.428571)">
      <g
         id="g3850">
        <path
           style="fill:#464646;fill-opacity:1"
           d="m -386.29171,688.19705 c -1.24361,-8.29069 -0.81962,-8.45919 19.36205,-7.69446 11.12093,0.42141 20.20481,-0.15661 20.1864,-1.28419 -0.1384,-8.47968 -3.54766,-12.7459 -11.35624,-14.21079 -11.60035,-2.17625 -25.16107,-16.77166 -35.90493,-38.64451 -6.43307,-13.09674 -13.90371,-22.91314 -28.18511,-37.03509 -19.1018,-18.88861 -19.7395,-19.27368 -37.5375,-22.66788 -9.9581,-1.89907 -18.429,-3.45415 -18.8244,-3.45574 -0.3953,-0.002 -0.3953,4.13299 0,9.18796 0.654,8.36132 0.1658,9.19085 -5.4084,9.19085 -5.4316,0 -6.2114,-1.15401 -6.8686,-10.16408 -0.5881,-8.06433 -1.8539,-10.46242 -6.1272,-11.60827 -9.7165,-2.60544 -15.5852,-1.58846 -20.1889,3.49854 -2.4935,2.75532 -6.8003,4.6854 -9.5707,4.28906 -4.79783,-0.68638 -5.03703,-2.2922 -5.03703,-33.80766 l 0,-33.08706 7.39863,-0.72573 c 5.6053,-0.54983 9.1322,1.08378 14.5512,6.73995 3.9339,4.10613 9.2596,7.46569 11.8349,7.46569 4.1652,0 4.5883,-1.55677 3.8305,-14.09263 -0.8236,-13.62538 -0.6487,-14.09264 5.2754,-14.09264 5.5709,0 6.1951,1.05702 6.8743,11.64175 0.8811,13.73239 -1.4961,13.31022 40.2917,7.15545 31.4177,-4.62739 33.659,-5.84497 42.27067,-22.96317 2.91613,-5.79666 11.04826,-15.22672 18.07141,-20.95568 l 12.76936,-10.41629 31.50757,0 c 25.74581,0 31.76557,-0.67229 32.91833,-3.67634 0.82468,-2.1491 4.49718,-3.67634 8.84034,-3.67634 9.57315,0 10.16641,-6.71219 0.68964,-7.80261 -4.19077,-0.4822 -7.66464,-2.8836 -9.18479,-6.34922 -2.11723,-4.82684 -3.7593,-5.40102 -12.25446,-4.28497 -33.18173,4.35923 -121.03297,10.91186 -128.42777,9.57912 -24.3556,-4.3895 -22.4296,-11.50026 3.6195,-13.36364 l 19.4138,-1.38872 -24.977,-0.44945 c -14.5038,-0.26098 -25.6522,-1.5419 -26.5872,-3.05477 -0.8856,-1.43294 0.4279,-4.87488 2.9189,-7.64878 4.4434,-4.94788 5.6902,-5.003 65.8016,-2.90917 102.61861,3.57445 160.2328,2.65113 230.3839,-3.6921 49.27447,-4.45553 65.29662,-5.13946 70.66238,-3.01637 11.722111,4.63814 6.426291,8.72782 -13.25916,10.23935 l -18.18893,1.39662 23.75156,0.44155 c 13.645271,0.25367 24.436701,1.55012 25.361741,3.04688 0.8856,1.43294 -0.42793,4.89042 -2.91897,7.68332 -4.40295,4.93649 -5.99733,5.03412 -57.223351,3.50384 -28.98181,-0.86577 -66.7562,-2.2824 -83.94308,-3.14806 -29.88362,-1.50515 -31.24889,-1.36516 -31.24889,3.20422 0,6.38081 -4.62427,10.66028 -11.51919,10.66028 -3.3768,0 -5.63706,1.47409 -5.63706,3.67634 0,2.06134 2.18713,3.67634 4.9787,3.67634 2.73831,0 5.61355,1.65435 6.38945,3.67634 1.14694,2.98887 6.9821,3.67634 31.2047,3.67634 l 29.79393,0 12.55686,8.45628 c 13.04816,8.78716 15.37185,12.49507 29.25898,46.68881 5.34383,13.15788 10.72592,20.95388 23.09354,33.4512 17.87848,18.06595 31.34594,25.35412 51.253811,27.73699 23.15407,2.77142 22.24683,0.9309 22.24683,45.13203 0,43.09842 0.0348,43.00002 -17.77996,50.44345 -6.59148,2.7541 -17.844021,3.76982 -41.763731,3.76982 l -32.74128,0 1.07913,7.35268 1.07915,7.35268 36.15469,0 c 32.822821,0 36.747641,-0.46641 42.588801,-5.06105 6.58952,-5.18334 11.3832,-4.61419 11.3832,1.35147 0,1.8446 -2.906,5.63966 -6.45776,8.43348 -6.37634,5.01563 -8.38465,5.07967 -159.308051,5.07967 -100.02117,0 -152.97734,-0.8471 -153.21791,-2.45089 z m 217.59099,-12.86719 c -0.81282,-3.03298 -1.49292,-6.34169 -1.51132,-7.35268 -0.0196,-1.01099 -37.89255,-1.83817 -84.16479,-1.83817 l -84.13133,0 1.07915,7.35268 1.07914,7.35268 84.56348,0 84.56348,0 -1.47781,-5.51451 z M -339.35711,584.0341 c 0,-69.03349 0.22156,-72.5229 4.90178,-77.20314 4.52832,-4.52831 8.16965,-4.90178 47.79242,-4.90178 39.62277,0 43.26409,0.37347 47.79241,4.90178 4.68022,4.68024 4.90179,8.16965 4.90179,77.20314 l 0,72.30134 68.01228,-0.0539 c 61.87725,-0.049 68.951871,-0.48033 78.428571,-4.78196 l 10.4163,-4.72814 0,-33.2838 c 0,-37.22872 -1.4676,-40.27345 -15.52391,-32.20625 -9.261091,5.31515 -40.227441,11.32979 -58.334171,11.33034 -22.01066,6.7e-4 -37.02493,-6.13944 -50.90823,-20.81901 -10.58144,-11.18831 -12.2452,-14.40723 -13.77493,-26.65081 -0.95695,-7.65904 -1.19403,-20.79089 -0.52684,-29.18189 0.66718,-8.391 0.0456,-24.35531 -1.38145,-35.47623 l -2.59451,-20.21977 -71.66469,0 -71.66469,0 -10.31882,7.9654 c -5.92009,4.56989 -13.59809,14.07961 -18.01154,22.3085 -8.85435,16.50895 -14.1872,19.94177 -34.5485,22.23937 -13.5742,1.53173 -36.3817,5.09193 -49.6306,7.74724 -3.033,0.60786 -5.5145,2.80532 -5.5145,4.88325 0,3.21695 2.639,3.51821 17.769,2.02844 9.7729,-0.96229 19.4233,-1.85625 21.4453,-1.98658 2.3507,-0.15151 3.6764,1.97246 3.6764,5.89027 0,6.01493 -0.3931,6.14021 -21.4454,6.83538 l -21.4453,0.70814 0,6.86232 c 0,6.74439 0.3686,6.9184 21.4453,10.1253 l 21.4454,3.26298 22.8729,22.25361 c 17.52121,17.04683 24.85605,26.26776 31.34877,39.40987 12.97604,26.26519 22.92019,35.48839 38.2995,35.52285 l 6.73996,0.0151 0,-72.30134 z m 25.65626,47.70325 c 6.48867,-13.52896 13.02087,-24.23533 14.51598,-23.79194 1.49511,0.44339 8.23289,11.51001 14.97285,24.59247 l 12.25446,23.78633 14.09264,0.005 14.09263,0.005 0,-69.36027 c 0,-50.67903 -0.79213,-70.15242 -2.94107,-72.30135 -4.1114,-4.11139 -75.78772,-4.11139 -79.89911,0 -3.43611,3.43611 -4.32747,141.66162 -0.91352,141.66162 1.11515,0 7.33646,-11.06914 13.82514,-24.59809 z m 28.26338,23.42693 c 0,-0.64412 -3.00048,-7.289 -6.66773,-14.76638 l -6.66774,-13.59525 -6.69655,12.92821 c -3.6831,7.11053 -6.74858,13.75542 -6.81217,14.76641 -0.0636,1.01099 5.95033,1.83817 13.36428,1.83817 7.41395,0 13.47991,-0.52702 13.47991,-1.17116 z m 159.37848,-75.15412 c 9.31999,-1.53917 16.42555,-3.63971 15.7901,-4.66787 -0.63542,-1.02816 -6.97208,-5.15215 -14.08141,-9.16441 -19.35835,-10.92518 -40.82425,-35.19961 -49.27973,-55.72732 -12.77019,-31.00267 -16.05982,-36.64569 -24.81929,-42.57472 -4.76819,-3.22744 -9.23972,-5.29776 -9.93675,-4.60072 -0.69706,0.69704 -0.0598,8.82611 1.41602,18.06461 1.47586,9.23849 1.95334,23.6143 1.06105,31.94625 -2.7679,25.84631 0.39118,39.3874 12.05942,51.6917 16.1881,17.07053 32.94696,20.78679 67.79059,15.03248 z m -376.44475,-32.04421 c 10.9536,2.33617 11.1912,2.25598 11.1912,-3.7764 0,-5.92209 -0.4449,-6.10226 -11.3711,-4.60467 -6.2541,0.85722 -13.4229,1.55858 -15.9308,1.55858 -3.3007,0 -4.5597,1.79666 -4.5597,6.5071 0,6.27762 0.1671,6.35582 4.7396,2.21781 3.9912,-3.61194 6.5068,-3.91236 15.9308,-1.90242 z m 11.1912,-21.52784 c 0,-1.34799 -3.7293,-2.4509 -8.2873,-2.4509 -6.0863,0 -10.3173,-2.07632 -15.9308,-7.81795 l -7.6435,-7.81795 0,10.26885 0,10.26884 15.9308,0 c 8.9866,0 15.9308,-1.06834 15.9308,-2.45089 z M -273.183,423.50061 c 0,-1.348 -1.1029,-2.4509 -2.4509,-2.4509 -1.34799,0 -2.45089,1.1029 -2.45089,2.4509 0,1.34799 1.1029,2.45089 2.45089,2.45089 1.348,0 2.4509,-1.1029 2.4509,-2.45089 z M 84.279741,688.19705 c -1.24361,-8.29069 -0.81961,-8.45919 19.362049,-7.69446 11.12093,0.42141 20.20482,-0.15661 20.18642,-1.28419 -0.13848,-8.47968 -3.54767,-12.7459 -11.35627,-14.21079 -11.61931,-2.1798 -25.186499,-16.80159 -35.857299,-38.64451 -6.66103,-13.63499 -13.60735,-22.59851 -29.57747,-38.16665 -19.29436,-18.80873 -21.26655,-20.10546 -26.09265,-17.15626 -4.42648,2.705 -5.66882,2.58752 -8.16652,-0.77228 -1.72778,-2.32415 -10.2357896,-5.26539 -20.5765996,-7.1134 l -17.6307604,-3.15079 -7.21727,7.72612 c -8.04937,8.61686 -10.65587,9.34946 -14.93212,4.19692 -1.61092,-1.94106 -5.33039,-3.87114 -8.26549,-4.28906 -5.18037,-0.73763 -5.33652,-1.72797 -5.33652,-33.84691 l 0,-33.08706 6.12723,-0.84756 c 3.36998,-0.46616 7.65037,-2.09976 9.51197,-3.63022 2.67456,-2.19882 5.29763,-0.62711 12.50171,7.49087 8.8377,9.95885 9.39643,10.19637 18.24052,7.7544 6.3600004,-1.75608 10.6271504,-5.06754 14.08747043,-10.93237 2.73016997,-4.62729 5.95789997,-8.41324 7.17275997,-8.41324 2.72299,0 12.0123596,9.08155 12.0123596,11.74363 0,1.06703 8.78907,0.7913 19.53127,-0.61273 21.52643,-2.81355 24.86536,-4.97196 33.14195,-21.42411 2.91612,-5.79666 11.04826,-15.22672 18.07141,-20.95568 l 12.769349,-10.41629 30.66139,0 c 30.02584,0 30.78623,-0.13473 36.68511,-6.49972 5.96724,-6.43876 5.97763,-6.53202 1.10842,-9.94255 -2.70341,-1.89356 -4.91532,-5.66711 -4.91532,-8.38568 0,-4.90231 -0.78375,-4.92833 -95.521279,-3.17127 -87.77968,1.628 -95.64793,1.44143 -97.08445,-2.30206 -0.85977,-2.24051 -0.20195,-5.71395 1.46198,-7.71878 2.59038,-3.12121 17.9405204,-3.64512 106.79914,-3.64512 l 103.773969,0 4.68811,-15.31808 c 3.63691,-11.88325 5.85756,-15.49401 9.90342,-16.10269 9.34842,-1.40644 9.5356,5.24775 0.80517,28.62635 -1.04342,2.79407 14.71732,3.03791 97.50081,1.50848 54.30998,-1.00338 100.47835,-1.95169 102.59639,-2.10736 4.87228,-0.3581 6.61337,7.3927 2.71564,12.08916 -2.48913,2.99921 -17.93166,3.5586 -98.23809,3.5586 -90.12173,0 -95.28474,0.23905 -95.28474,4.41161 0,6.04021 -4.7599,10.29375 -11.51919,10.29375 -3.37679,0 -5.63706,1.47409 -5.63706,3.67634 0,2.06134 2.18713,3.67634 4.9787,3.67634 2.73831,0 5.61355,1.65435 6.38945,3.67634 1.14695,2.98887 6.98211,3.67634 31.2047,3.67634 l 29.79393,0 12.55686,8.45628 c 13.04816,8.78716 15.37185,12.49507 29.25898,46.68881 5.34383,13.15788 10.72592,20.95388 23.09354,33.4512 17.87848,18.06595 31.34594,25.35412 51.25381,27.73699 23.15407,2.77142 22.24683,0.9309 22.24683,45.13203 0,43.09842 0.0345,43.00002 -17.77996,50.44345 -6.59148,2.7541 -17.84402,3.76982 -41.76373,3.76982 l -32.74128,0 1.07913,7.35268 1.07915,7.35268 36.15469,0 c 32.82282,0 36.74764,-0.46641 42.5888,-5.06105 6.58952,-5.18334 11.3832,-4.61419 11.3832,1.35147 0,1.8446 -2.906,5.63966 -6.45776,8.43348 -6.37634,5.01563 -8.38465,5.07967 -159.30804,5.07967 -100.02117,0 -152.977339,-0.8471 -153.217919,-2.45089 z M 301.87073,675.32986 c -0.81282,-3.03298 -1.49292,-6.34169 -1.51132,-7.35268 -0.0196,-1.01099 -37.89255,-1.83817 -84.16479,-1.83817 l -84.13132,0 1.07913,7.35268 1.07915,7.35268 84.56348,0 84.56348,0 -1.47781,-5.51451 z M 131.21434,584.0341 c 0,-69.03349 0.22156,-72.5229 4.90178,-77.20314 4.52832,-4.52831 8.16964,-4.90178 47.79242,-4.90178 39.62278,0 43.26409,0.37347 47.79241,4.90178 4.68023,4.68024 4.90179,8.16965 4.90179,77.20314 l 0,72.30134 68.01228,-0.0539 c 61.87725,-0.049 68.95187,-0.48033 78.42857,-4.78196 l 10.4163,-4.72814 0,-33.2838 c 0,-37.22872 -1.4676,-40.27345 -15.52391,-32.20625 -9.26109,5.31515 -40.22744,11.32979 -58.33417,11.33034 -22.01066,6.5e-4 -37.02493,-6.13946 -50.90823,-20.81903 -10.58144,-11.18831 -12.2452,-14.40723 -13.77493,-26.65081 -0.95695,-7.65904 -1.19402,-20.79089 -0.52684,-29.18189 0.66718,-8.391 0.0456,-24.35531 -1.38145,-35.47623 l -2.59451,-20.21987 -33.75105,0 c -20.94092,0 -36.18933,1.11095 -40.17521,2.92704 -4.97946,2.26879 -7.47817,2.26879 -11.11108,0 -2.88967,-1.80453 -14.96471,-2.92694 -31.48949,-2.92694 -26.48817,0 -26.9236,0.0934 -37.121369,7.9654 -5.92008,4.56989 -13.59809,14.07961 -18.01154,22.3085 -4.231,7.8887 -10.42656,15.73632 -13.76792,17.43916 -3.34135,1.70284 -16.43576,4.39353 -29.09864,5.9793 -25.06249,3.13857 -28.2120996,4.25909 -36.30656957,12.91654 l -5.41040003,5.78668 18.8168296,13.43279 c 10.34927,7.38804 29.14271,23.35891 41.76322,35.49083 17.78341,17.09495 24.85347,25.91823 31.42226,39.21429 12.97603,26.26519 22.920189,35.48839 38.299489,35.52285 l 6.73996,0.0151 0,-72.30134 z m 25.65627,47.70325 c 6.48866,-13.52896 13.02085,-24.23533 14.51597,-23.79194 1.49512,0.44339 8.2329,11.51001 14.97285,24.59247 l 12.25447,23.78633 14.09263,0.005 14.09263,0.005 0,-69.36027 c 0,-50.67903 -0.79212,-70.15242 -2.94107,-72.30135 -4.11139,-4.11139 -75.78771,-4.11139 -79.89911,0 -3.4361,3.43611 -4.32747,141.66162 -0.91352,141.66162 1.11516,0 7.33646,-11.06914 13.82515,-24.59809 z m 28.26337,23.42693 c 0,-0.64412 -3.00048,-7.289 -6.66772,-14.76638 l -6.66776,-13.59525 -6.69655,12.92821 c -3.68308,7.11053 -6.74855,13.75542 -6.81216,14.76641 -0.0637,1.01099 5.95033,1.83817 13.36428,1.83817 7.41395,0 13.47991,-0.52702 13.47991,-1.17116 z m 159.37848,-75.15412 c 9.31999,-1.53917 16.42555,-3.63971 15.7901,-4.66787 -0.63542,-1.02816 -6.97208,-5.15215 -14.08141,-9.16441 -19.35835,-10.92518 -40.82425,-35.19961 -49.27973,-55.72732 -12.77019,-31.00267 -16.05982,-36.64569 -24.81929,-42.57472 -4.76819,-3.22744 -9.23972,-5.29776 -9.93675,-4.60072 -0.69706,0.69704 -0.0598,8.82611 1.41603,18.06461 1.47585,9.23849 1.95333,23.6143 1.06104,31.94625 -2.76789,25.84631 0.39118,39.3874 12.05942,51.6917 16.1881,17.07053 32.94696,20.78679 67.79059,15.03248 z M -38.178149,545.65599 c 3.2155,-0.4599 7.39988,-3.18817 9.29866,-6.06282 3.23589,-4.89905 2.69528,-5.78234 -8.62562,-14.09264 -6.64285,-4.8763 -12.75731,-8.866 -13.58773,-8.866 -0.83038,0 -1.5098,8.4427 -1.5098,18.76156 0,17.69431 0.24387,18.54353 4.28907,14.92882 2.35898,-2.10801 6.91992,-4.20902 10.13542,-4.66892 z m 30.9884004,2.91902 c -3.6201604,-4.00024 -5.2527204,-4.33941 -9.5707104,-1.98837 -5.17246,2.81628 -5.16653,2.8458 0.92122,4.57862 11.4447404,3.25764 13.4093204,2.6693 8.6494904,-2.59025 z M 197.38845,423.50061 c 0,-1.348 -1.1029,-2.4509 -2.45089,-2.4509 -1.34799,0 -2.4509,1.1029 -2.4509,2.4509 0,1.34799 1.10291,2.45089 2.4509,2.45089 1.34799,0 2.45089,-1.1029 2.45089,-2.45089 z m 357.46274,264.69644 c -1.24361,-8.29069 -0.81961,-8.45919 19.36205,-7.69446 11.12093,0.42141 20.20482,-0.15661 20.18641,-1.28419 -0.13847,-8.47968 -3.54766,-12.7459 -11.35626,-14.21079 -11.60034,-2.17625 -25.16106,-16.77166 -35.90492,-38.64451 -6.43308,-13.09674 -13.90372,-22.91314 -28.18507,-37.03509 -19.10182,-18.88861 -19.73949,-19.27368 -37.53749,-22.66788 -9.95807,-1.89907 -18.42904,-3.45415 -18.82437,-3.45574 -0.39536,-0.002 -0.39536,4.13299 0,9.18796 0.65392,8.36132 0.16568,9.19085 -5.40844,9.19085 -5.43154,0 -6.21139,-1.15401 -6.86855,-10.16408 -0.58817,-8.06433 -1.85396,-10.46242 -6.12723,-11.60827 -9.71657,-2.60544 -15.58523,-1.58846 -20.18892,3.49854 -2.49351,2.75532 -6.80034,4.6854 -9.57071,4.28906 -4.79774,-0.68638 -5.037,-2.2922 -5.037,-33.80766 l 0,-33.08706 7.39858,-0.72573 c 5.60534,-0.54983 9.13223,1.08378 14.55118,6.73995 3.93392,4.10613 9.25967,7.46569 11.83499,7.46569 4.16512,0 4.58827,-1.55677 3.8305,-14.09263 -0.82362,-13.62538 -0.6487,-14.09264 5.27538,-14.09264 5.5709,0 6.19505,1.05702 6.87424,11.64175 0.88117,13.73239 -1.49605,13.31022 40.29177,7.15545 31.41763,-4.62739 33.65895,-5.84497 42.2706,-22.96317 2.91612,-5.79666 11.04826,-15.22672 18.07141,-20.95568 l 12.76935,-10.41629 31.50758,0 c 25.74582,0 31.76556,-0.67229 32.91834,-3.67634 0.82467,-2.1491 4.49716,-3.67634 8.84034,-3.67634 4.97014,0 7.42959,-1.21699 7.42959,-3.67634 0,-2.20225 -2.26026,-3.67634 -5.63705,-3.67634 -6.89493,0 -11.5192,-4.27947 -11.5192,-10.66028 0,-4.56938 -1.36527,-4.70937 -31.24889,-3.20422 -17.18688,0.86566 -54.96127,2.28229 -83.94308,3.14806 -51.22602,1.53028 -52.8204,1.43265 -57.22335,-3.50384 -2.49104,-2.7929 -3.80457,-6.25038 -2.91897,-7.68332 0.92504,-1.49676 11.71647,-2.79321 25.36175,-3.04688 l 23.75155,-0.44155 -18.18893,-1.39662 c -19.68545,-1.51153 -24.98127,-5.60121 -13.25916,-10.23935 5.36576,-2.12309 21.38791,-1.43916 70.66238,3.01637 70.1511,6.34323 127.76529,7.26655 230.38398,3.6921 60.1113,-2.09383 61.3581,-2.03871 65.8014,2.90917 2.4911,2.7739 3.8046,6.21584 2.919,7.64878 -0.935,1.51287 -12.0835,2.79379 -26.5872,3.05477 l -24.977,0.44945 19.4137,1.38872 c 26.0492,1.86338 27.9751,8.97414 3.6196,13.36364 -7.3948,1.33274 -95.246,-5.21989 -128.42774,-9.57912 -8.49517,-1.11605 -10.13724,-0.54187 -12.25447,4.28497 -1.52016,3.46562 -4.99401,5.86702 -9.18479,6.34922 -7.78147,0.89536 -9.3406,7.80261 -1.76126,7.80261 2.73831,0 5.61355,1.65435 6.38945,3.67634 1.14694,2.98887 6.9821,3.67634 31.2047,3.67634 l 29.79391,0 12.5569,8.45628 c 13.0481,8.78716 15.3718,12.49507 29.259,46.68881 5.3438,13.15788 10.7259,20.95388 23.0935,33.4512 17.8785,18.06595 31.3459,25.35412 51.2538,27.73699 23.1541,2.77142 22.2468,0.9309 22.2468,45.13203 0,43.09842 0.034,43.00002 -17.7799,50.44345 -6.5915,2.7541 -17.844,3.76982 -41.7638,3.76982 l -32.7412,0 1.0791,7.35268 1.0791,7.35268 36.1547,0 c 32.8229,0 36.7477,-0.46641 42.5888,-5.06105 6.5896,-5.18334 11.3832,-4.61419 11.3832,1.35147 0,1.8446 -2.906,5.63966 -6.4577,8.43348 -6.3764,5.01563 -8.3847,5.07967 -159.30807,5.07967 -100.02116,0 -152.97733,-0.8471 -153.21791,-2.45089 z m 217.59098,-12.86719 c -0.8128,-3.03298 -1.4929,-6.34169 -1.5113,-7.35268 -0.02,-1.01099 -37.8926,-1.83817 -84.1648,-1.83817 l -84.13132,0 1.07913,7.35268 1.07915,7.35268 84.56348,0 84.56346,0 -1.4778,-5.51451 z M 601.78579,584.0341 c 0,-69.03349 0.22156,-72.5229 4.90178,-77.20314 4.52832,-4.52831 8.16964,-4.90178 47.79242,-4.90178 39.62277,0 43.26409,0.37347 47.79241,4.90178 4.68022,4.68024 4.90179,8.16965 4.90179,77.20314 l 0,72.30134 68.01228,-0.0539 c 61.8772,-0.049 68.9519,-0.48033 78.4286,-4.78196 l 10.4163,-4.72814 0,-33.2838 c 0,-37.22872 -1.4676,-40.27345 -15.5239,-32.20625 -9.2611,5.31515 -40.2275,11.32979 -58.3342,11.33034 -22.0107,6.7e-4 -37.0249,-6.13944 -50.9082,-20.81901 -10.5815,-11.18831 -12.2452,-14.40723 -13.775,-26.65081 -0.9569,-7.65904 -1.194,-20.79089 -0.5268,-29.18189 0.6672,-8.391 0.046,-24.35531 -1.3815,-35.47623 l -2.5945,-20.21987 -71.66465,0 -71.6647,0 -10.31882,7.9654 c -5.92008,4.5699 -13.59809,14.07961 -18.01154,22.3085 -8.85434,16.50895 -14.18719,19.94177 -34.54847,22.23937 -13.57422,1.53173 -36.38167,5.09193 -49.63059,7.74724 -3.03298,0.60786 -5.5145,2.80532 -5.5145,4.88325 0,3.21695 2.63897,3.51821 17.76897,2.02844 9.77294,-0.96229 19.42333,-1.85625 21.44531,-1.98658 2.3507,-0.15151 3.67634,1.97246 3.67634,5.89027 0,6.01493 -0.39307,6.14022 -21.44531,6.83538 l -21.44531,0.70814 0,6.86233 c 0,6.74438 0.36856,6.9184 21.44531,10.12529 l 21.44531,3.26298 22.87294,22.25361 c 17.52121,17.04683 24.85605,26.26776 31.34878,39.40987 12.97603,26.26519 22.92019,35.48839 38.29949,35.52285 l 6.73996,0.0152 0,-72.30134 z m 25.65626,47.70325 c 6.48867,-13.52896 13.02086,-24.23533 14.51598,-23.79194 1.49512,0.44339 8.23289,11.51001 14.97285,24.59247 l 12.25446,23.78633 14.09264,0.005 14.09263,0.005 0,-69.36027 c 0,-50.67903 -0.79213,-70.15242 -2.94107,-72.30135 -4.1114,-4.11139 -75.78771,-4.11139 -79.89911,0 -3.4361,3.43611 -4.32747,141.66162 -0.91352,141.66162 1.11516,0 7.33645,-11.06914 13.82514,-24.59809 z m 28.26338,23.42693 c 0,-0.64412 -3.00048,-7.289 -6.66773,-14.76638 l -6.66775,-13.59525 -6.69655,12.92821 c -3.68308,7.11053 -6.74856,13.75542 -6.81216,14.76641 -0.0637,1.01099 5.95033,1.83817 13.36428,1.83817 7.41395,0 13.47991,-0.52702 13.47991,-1.17116 z m 159.37844,-75.15412 c 9.32,-1.53917 16.4256,-3.63971 15.7901,-4.66787 -0.6354,-1.02816 -6.972,-5.15215 -14.0814,-9.16441 -19.3583,-10.92518 -40.8242,-35.19961 -49.2797,-55.72732 -12.7702,-31.00267 -16.0598,-36.64569 -24.8193,-42.57472 -4.7682,-3.22744 -9.2397,-5.29776 -9.9367,-4.60072 -0.6971,0.69704 -0.06,8.82611 1.416,18.06461 1.4758,9.23849 1.9533,23.6143 1.061,31.94625 -2.7679,25.84631 0.3912,39.3874 12.0594,51.6917 16.1881,17.07053 32.947,20.78679 67.7906,15.03248 z M 438.6392,547.96595 c 10.95358,2.33617 11.19122,2.25598 11.19122,-3.7764 0,-5.92209 -0.44493,-6.10226 -11.37109,-4.60467 -6.25411,0.85722 -13.42297,1.55858 -15.9308,1.55858 -3.30074,0 -4.55972,1.79666 -4.55972,6.5071 0,6.27762 0.16716,6.35582 4.73959,2.21781 3.99116,-3.61194 6.50685,-3.91236 15.9308,-1.90242 z m 11.19122,-21.52784 c 0,-1.34799 -3.72928,-2.4509 -8.2873,-2.4509 -6.08633,0 -10.3173,-2.07632 -15.9308,-7.81795 l -7.64351,-7.81795 0,10.26885 0,10.26884 15.93081,0 c 8.98661,0 15.9308,-1.06834 15.9308,-2.45089 z m 203.42412,-102.9375 c 0,-1.348 -1.1029,-2.4509 -2.45089,-2.4509 -1.34799,0 -2.4509,1.1029 -2.4509,2.4509 0,1.34799 1.10291,2.45089 2.4509,2.45089 1.34799,0 2.45089,-1.1029 2.45089,-2.45089 z m 372.16816,264.69644 c -1.2436,-8.29069 -0.8196,-8.45919 19.362,-7.69446 11.1209,0.42141 20.2048,-0.15661 20.1864,-1.28419 -0.1384,-8.47968 -3.5476,-12.7459 -11.3562,-14.21079 -11.6193,-2.1798 -25.1865,-16.80159 -35.8573,-38.64451 -6.6611,-13.63499 -13.6074,-22.59851 -29.57753,-38.16665 -19.2944,-18.80873 -21.2666,-20.10546 -26.0927,-17.15626 -4.4264,2.705 -5.6688,2.58752 -8.1665,-0.77228 -1.7278,-2.32415 -10.2358,-5.26539 -20.5766,-7.1134 l -17.6307,-3.15079 -7.2173,7.72612 c -8.0494,8.61686 -10.6559,9.34946 -14.9321,4.19692 -1.6109,-1.94106 -5.3304,-3.87114 -8.2655,-4.28906 -5.1804,-0.73763 -5.3365,-1.72797 -5.3365,-33.84691 l 0,-33.08706 6.1272,-0.84756 c 3.37,-0.46616 7.6504,-2.09976 9.512,-3.63022 2.6745,-2.19882 5.2976,-0.62711 12.5017,7.49087 8.8377,9.95885 9.3964,10.19637 18.2405,7.7544 6.36,-1.75608 10.6271,-5.06754 14.0875,-10.93237 2.7301,-4.62729 5.9579,-8.41324 7.1727,-8.41324 2.723,0 12.0124,9.08155 12.0124,11.74363 0,1.06703 8.7891,0.7913 19.5313,-0.61273 21.52643,-2.81355 24.86533,-4.97196 33.14193,-21.42411 2.9161,-5.79666 11.0483,-15.22672 18.0714,-20.95568 l 12.7694,-10.41629 33.9584,0 c 27.9244,0 34.2092,-0.65325 35.3693,-3.67634 0.7759,-2.02199 3.6511,-3.67634 6.3894,-3.67634 2.7916,0 4.9787,-1.615 4.9787,-3.67634 0,-2.20225 -2.2602,-3.67634 -5.637,-3.67634 -6.7593,0 -11.5192,-4.25354 -11.5192,-10.29375 0,-4.17256 -5.163,-4.41161 -95.2848,-4.41161 -80.30643,0 -95.74893,-0.55939 -98.23813,-3.5586 -3.8977,-4.69646 -2.1566,-12.44726 2.7157,-12.08916 2.118,0.15568 48.2864,1.10398 102.59643,2.10736 82.7835,1.52943 98.5442,1.28559 97.5008,-1.50848 -8.7304,-23.3786 -8.5433,-30.03279 0.8051,-28.62635 4.0459,0.60868 6.2666,4.21944 9.9035,16.10269 l 4.6881,15.31808 103.774,0 c 88.8586,0 104.2087,0.52391 106.7991,3.64512 1.6639,2.00483 2.3217,5.47827 1.462,7.71878 -1.4365,3.74349 -9.3048,3.93006 -97.0845,2.30206 -94.7375,-1.75706 -95.5213,-1.73104 -95.5213,3.17127 0,2.71857 -2.2119,6.49212 -4.9153,8.38568 -4.8692,3.41053 -4.8588,3.50379 1.1084,9.94255 5.8017,6.2601 7.0006,6.49972 32.5206,6.49972 26.1492,0 26.6616,0.11095 39.0537,8.45628 13.0482,8.78716 15.3719,12.49507 29.259,46.68881 5.3438,13.15788 10.7259,20.95388 23.0935,33.4512 17.8785,18.06595 31.346,25.35412 51.2539,27.73699 23.154,2.77142 22.2468,0.9309 22.2468,45.13203 0,43.09842 0.035,43.00002 -17.78,50.44345 -6.5914,2.7541 -17.844,3.76982 -41.7637,3.76982 l -32.7413,0 1.0791,7.35268 1.0792,7.35268 36.1547,0 c 32.8228,0 36.7476,-0.46641 42.5888,-5.06105 6.5895,-5.18334 11.3832,-4.61419 11.3832,1.35147 0,1.8446 -2.906,5.63966 -6.4578,8.43348 -6.3763,5.01563 -8.3846,5.07967 -159.308,5.07967 -100.0212,0 -152.9774,-0.8471 -153.2179,-2.45089 z m 217.591,-12.86719 c -0.8129,-3.03298 -1.493,-6.34169 -1.5114,-7.35268 -0.02,-1.01099 -37.8925,-1.83817 -84.1648,-1.83817 l -84.1313,0 1.0792,7.35268 1.0791,7.35268 84.5635,0 84.5635,0 -1.4778,-5.51451 z M 1072.3573,584.0341 c 0,-69.03349 0.2215,-72.5229 4.9017,-77.20314 4.5284,-4.52831 8.1697,-4.90178 47.7925,-4.90178 39.6227,0 43.2641,0.37347 47.7924,4.90178 4.6802,4.68024 4.9018,8.16965 4.9018,77.20314 l 0,72.30134 68.0122,-0.0539 c 61.8773,-0.049 68.9519,-0.48033 78.4286,-4.78196 l 10.4163,-4.72814 0,-33.2838 c 0,-37.22872 -1.4676,-40.27345 -15.5239,-32.20625 -9.2611,5.31515 -40.2274,11.32979 -58.3342,11.33034 -22.0106,6.7e-4 -37.0249,-6.13944 -50.9082,-20.81901 -10.5814,-11.18831 -12.2452,-14.40723 -13.7749,-26.65081 -0.957,-7.65904 -1.194,-20.79089 -0.5269,-29.18189 0.6672,-8.391 0.046,-24.35531 -1.3814,-35.47623 l -2.5945,-20.21987 -17.9688,0 c -9.8829,0 -20.078,1.31717 -22.6558,2.92704 -3.6329,2.26879 -6.1317,2.26879 -11.1111,0 -4.192,-1.9099 -21.2209,-2.92694 -49.0089,-2.92694 l -42.5848,0 -10.3188,7.9654 c -5.9201,4.56989 -13.5981,14.07961 -18.0116,22.3085 -4.231,7.8887 -10.4265,15.73632 -13.7679,17.43916 -3.3413,1.70284 -16.43573,4.39353 -29.09863,5.9793 -25.0625,3.13857 -28.2121,4.25909 -36.3066,12.91654 l -5.4104,5.78668 18.8168,13.43279 c 10.3493,7.38804 29.1427,23.35891 41.7633,35.49083 17.78343,17.09495 24.85343,25.91823 31.42223,39.21429 12.976,26.26519 22.9202,35.48839 38.2995,35.52285 l 6.74,0.0151 0,-72.30134 z m 25.6562,47.70325 c 6.4887,-13.52896 13.0209,-24.23533 14.516,-23.79194 1.4951,0.44339 8.2329,11.51001 14.9729,24.59247 l 12.2544,23.78633 14.0927,0.005 14.0926,0.005 0,-69.36027 c 0,-50.67903 -0.7921,-70.15242 -2.9411,-72.30135 -4.1114,-4.11139 -75.7877,-4.11139 -79.8991,0 -3.4361,3.43611 -4.3275,141.66162 -0.9135,141.66162 1.1151,0 7.3364,-11.06914 13.8251,-24.59809 z m 28.2634,23.42693 c 0,-0.64412 -3.0005,-7.289 -6.6677,-14.76638 l -6.6678,-13.59525 -6.6965,12.92821 c -3.6831,7.11053 -6.7486,13.75542 -6.8122,14.76641 -0.064,1.01099 5.9503,1.83817 13.3643,1.83817 7.4139,0 13.4799,-0.52702 13.4799,-1.17116 z m 159.3785,-75.15412 c 9.32,-1.53917 16.4255,-3.63971 15.7901,-4.66787 -0.6354,-1.02816 -6.9721,-5.15215 -14.0814,-9.16441 -19.3584,-10.92518 -40.8243,-35.19961 -49.2798,-55.72732 -12.7701,-31.00267 -16.0598,-36.64569 -24.8192,-42.57472 -4.7682,-3.22744 -9.2398,-5.29776 -9.9368,-4.60072 -0.6971,0.69704 -0.06,8.82611 1.416,18.06461 1.4759,9.23849 1.9534,23.6143 1.0611,31.94625 -2.7679,25.84631 0.3912,39.3874 12.0594,51.6917 16.1881,17.07053 32.947,20.78679 67.7906,15.03248 z M 902.96477,545.65599 c 3.2155,-0.4599 7.3999,-3.18817 9.2986,-6.06282 3.2359,-4.89905 2.6953,-5.78234 -8.6256,-14.09264 -6.6428,-4.8763 -12.7573,-8.866 -13.5877,-8.866 -0.8304,0 -1.5098,8.4427 -1.5098,18.76156 0,17.69431 0.2441,18.54353 4.2891,14.92882 2.3589,-2.10801 6.9199,-4.20902 10.1354,-4.66892 z m 30.9884,2.91902 c -3.6202,-4.00024 -5.2527,-4.33941 -9.5707,-1.98837 -5.1725,2.81628 -5.1666,2.8458 0.9212,4.57862 11.4447,3.25764 13.4093,2.6693 8.6495,-2.59025 z M 1123.826,423.50061 c 0,-1.348 -1.1029,-2.4509 -2.4509,-2.4509 -1.348,0 -2.4509,1.1029 -2.4509,2.4509 0,1.34799 1.1029,2.45089 2.4509,2.45089 1.348,0 2.4509,-1.1029 2.4509,-2.45089 z"
           id="path3072"
           inkscape:connector-curvature="0" />
        <path
           style="fill:#464646;fill-opacity:1;stroke:none"
           d="m -374.38999,686.72086 c -10.38268,-1.67311 -10.77489,-2.03031 -4.28571,-3.90305 3.92857,-1.13375 13.25,-2.07895 20.71428,-2.1004 7.46429,-0.0215 13.57143,-1.03864 13.57143,-2.26042 0,-4.43697 -8.9938,-14.92144 -12.79994,-14.92144 -7.34686,0 -21.57585,-14.86688 -33.59965,-35.10594 -12.48192,-21.01017 -38.59689,-51.34287 -49.02593,-56.94392 -3.30168,-1.7732 -13.39591,-4.77087 -22.43162,-6.66148 -15.92165,-3.3314 -16.42992,-3.25004 -16.47232,2.63693 -0.024,3.34093 -1.30978,8.00298 -2.85715,10.36012 -2.50079,3.80953 -3.12599,3.80953 -5.62678,0 -1.54736,-2.35714 -2.83308,-7.04101 -2.85714,-10.4086 -0.0724,-10.13281 -19.54295,-13.51593 -28.92446,-5.02579 -8.96501,8.11322 -11.11929,2.21406 -11.11929,-30.44851 0,-35.28908 1.55925,-37.28662 18.82539,-24.1171 14.11778,10.76816 17.85339,9.49587 18.8752,-6.42857 1.05397,-16.42542 5.41191,-17.62581 8.9944,-2.47751 l 2.62365,11.09392 21.76925,-1.83444 c 11.97309,-1.00894 28.11991,-3.42977 35.88183,-5.37963 12.33264,-3.09806 15.48059,-5.52715 24.95913,-19.25948 5.9656,-8.64286 15.04351,-19.21542 20.17313,-23.49457 8.84057,-7.37484 10.89869,-7.78429 39.49479,-7.85714 22.00639,-0.0561 31.66866,-1.21175 35.71428,-4.27171 3.05035,-2.30717 7.79609,-4.23574 10.54609,-4.28572 6.00155,-0.10906 6.81674,-8.66229 0.82559,-8.66229 -2.29593,0 -6.72297,-2.73555 -9.83787,-6.07901 l -5.66346,-6.079 -55.16213,4.66932 c -62.1478,5.26064 -87.50789,5.77089 -93.65349,1.88435 -5.22623,-3.30512 -2.76548,-4.31583 19.91993,-8.18175 l 15.71429,-2.67793 -21.42857,-0.38317 c -21.16774,-0.3785 -32.01083,-3.52835 -27.53057,-7.99746 1.26717,-1.26401 59.08708,-2.38461 128.48869,-2.49022 92.04119,-0.14006 139.83356,-1.43986 176.62693,-4.80367 47.77235,-4.36757 62.41495,-4.21637 62.41495,0.64449 0,1.16887 -8.03572,3.41135 -17.85715,4.9833 l -17.85714,2.85809 21.42857,0.44151 c 24.397659,0.50268 31.375487,3.04145 24.360687,8.86322 -3.581314,2.97223 -20.994227,3.30358 -86.709857,1.65002 l -82.22861,-2.06907 -3.36414,7.38349 c -2.00265,4.39534 -5.70154,7.38349 -9.13968,7.38349 -9.18403,0 -6.70595,7.06939 4.32139,12.32797 7.19296,3.43008 17.62599,4.81489 36.27501,4.81489 36.49034,0 43.73117,5.16224 62.64292,44.66029 11.50211,24.0227 17.08377,32.0025 32.41951,46.34832 18.13274,16.9623 37.164,26.13424 54.227057,26.13424 11.486,0 12.91,4.94054 12.91,44.79128 l 0,37.93414 -7.717314,5.06586 c -6.194114,4.06601 -15.270943,5.25155 -45.988283,6.00662 -37.6796,0.92622 -38.24529,1.03659 -36.60743,7.14286 0.91497,3.41116 1.68114,7.99053 1.7026,10.17638 0.0323,3.29635 6.47703,3.62432 37.78126,1.92261 20.75822,-1.12843 40.154053,-3.34246 43.101853,-4.92007 7.4052,-3.96314 9.868057,-0.46503 3.886229,5.51978 -4.5264,4.52866 -16.545343,4.96229 -146.972802,5.3026 -78.12379,0.20386 -147.18611,-0.45811 -153.47183,-1.47103 z m 206.61835,-11.04245 -0.90406,-7.85715 -32.85714,-1.76697 c -18.07143,-0.97183 -56.32143,-1.93612 -85,-2.14286 l -52.14286,-0.37588 0,10 0,10 85.90406,0 85.90405,0 -0.90405,-7.85714 z m -170.36807,-90.9485 c 0.83641,-68.49128 1.24163,-73.34633 6.43867,-77.14285 8.32316,-6.08021 80.74363,-5.75972 89.53245,0.39621 6.27986,4.39858 6.35003,5.25345 6.35003,77.35943 l 0,72.9117 72.14286,-1.00021 c 92.764027,-1.2861 87.857142,0.85169 87.857142,-38.27697 0,-16.14546 -1.251829,-32.64797 -2.781857,-36.67223 l -2.781858,-7.31684 -13.928342,5.49004 c -7.660605,3.01952 -23.816515,6.86536 -35.902055,8.54631 -35.7218,4.96844 -58.90192,-3.10257 -74.97232,-26.10439 -6.93631,-9.92804 -7.56868,-13.62836 -9.7654,-57.14286 -1.29183,-25.59008 -2.43351,-46.84884 -2.53705,-47.2417 -0.10355,-0.39286 -32.53119,-0.71429 -72.06143,-0.71429 l -71.87317,0 -9.53939,7.27605 c -5.24666,4.00183 -14.62791,14.76922 -20.84721,23.92755 -6.2193,9.15833 -13.35863,17.43847 -15.86518,18.40033 -2.50655,0.96185 -17.67523,3.7743 -33.70819,6.24989 -36.755,5.67519 -39.15083,6.40317 -39.15083,11.89597 0,3.83572 2.98095,4.25766 20,2.83084 15.44402,-1.29477 20,-0.82348 20,2.06892 0,3.88648 -14.26042,7.26378 -30.90407,7.31901 -8.63941,0.0287 -9.39572,0.7228 -8.57143,7.8668 0.8421,7.29829 2.27107,8.08211 20.84763,11.4353 19.41156,3.50392 20.52898,4.18194 41.88996,25.41763 12.07052,11.99973 26.59867,29.67527 32.28479,39.27898 5.68612,9.60372 12.0288,19.68395 14.09486,22.40052 4.95671,6.51736 18.78457,13.59258 26.60853,13.61461 6.24333,0.0177 6.25127,-0.0637 7.14286,-73.07375 l 0,0 z m 24.82793,50.23421 c 6.69834,-12.57143 13.05312,-22.85588 14.12172,-22.85433 1.06861,0.002 7.49474,10.28726 14.28028,22.85714 l 12.33736,22.85433 15.8913,0 15.8913,0 -1.27591,-71.38058 c -0.70174,-39.25932 -2.19114,-72.29583 -3.30977,-73.41446 -2.85314,-2.85313 -78.08969,-2.79529 -80.95346,0.0622 -3.15014,3.14327 -4.72334,144.73281 -1.60813,144.73281 1.34559,0 7.92698,-10.28571 14.62531,-22.85714 z m 28.92179,20.07643 c 0,-4.05637 -12.26293,-28.64786 -14.28571,-28.64786 -2.02278,0 -14.28572,24.59149 -14.28572,28.64786 0,1.52939 6.42858,2.78071 14.28572,2.78071 7.85714,0 14.28571,-1.25132 14.28571,-2.78071 z m 169.28572,-75.90927 c 7.62051,-2.92838 6.21748,-5.27303 -9.09126,-15.19276 -21.084,-13.66196 -37.23666,-33.45548 -52.16186,-63.91924 -12.34323,-25.19373 -21.52111,-36.48373 -29.65843,-36.48373 -2.26731,0 -2.88525,10.70981 -2.10182,36.42857 1.44274,47.36211 2.47851,53.07705 11.58028,63.89389 12.81423,15.22885 27.08866,20.17832 53.57594,18.57673 12.57143,-0.76015 25.10715,-2.24671 27.85715,-3.30346 z m -386.61641,-29.88145 c 9.71164,0 11.61641,-0.93698 11.61641,-5.71428 0,-6.1884 -7.92158,-7.41568 -25.35715,-3.92857 -7.03638,1.40727 -8.92857,3.24508 -8.92857,8.67195 0,5.92286 0.77315,6.47246 5.52646,3.92857 3.03955,-1.62671 10.75383,-2.95767 17.14285,-2.95767 z m 11.61641,-22.5 c 0,-1.375 -4.13206,-3.32641 -9.18235,-4.33647 -5.0503,-1.01005 -12.76459,-5.26846 -17.14286,-9.46311 l -7.96051,-7.62665 0,11.96312 0,11.96311 17.14286,0 c 9.42857,0 17.14286,-1.125 17.14286,-2.5 z m 217.14285,-103.21428 c 0,-1.57143 -1.28571,-2.85714 -2.85714,-2.85714 -1.57143,0 -2.85714,1.28571 -2.85714,2.85714 0,1.57143 1.28571,2.85714 2.85714,2.85714 1.57143,0 2.85714,-1.28571 2.85714,-2.85714 z"
           id="path3074"
           inkscape:connector-curvature="0" />
        <path
           style="fill:#464646;fill-opacity:1;stroke:none"
           d="m 95.610013,686.70889 -12.857143,-1.80606 9.642857,-2.11222 c 5.303572,-1.16172 14.714423,-2.1122 20.913003,-2.1122 10.04049,0 11.17053,-0.69849 10.35714,-6.4018 -0.54398,-3.81429 -4.37745,-8.00252 -9.48443,-10.36212 -13.30417,-6.147 -23.786921,-17.24408 -36.045064,-38.15747 -14.102114,-24.05935 -46.385809,-57.07511 -54.990343,-56.2373 -3.359097,0.32707 -9.964591,-0.98041 -14.678877,-2.90552 -4.7142857,-1.92511 -14.3571429,-4.59863 -21.428571,-5.94115 -11.610443,-2.20428 -13.598589,-1.73601 -20.503629,4.82921 -7.111605,6.76161 -8.260807,6.99824 -16.428572,3.38284 l -8.782085,-3.88733 0,-32.15968 c 0,-17.68783 0.964286,-32.17724 2.142857,-32.1987 1.178571,-0.0214 4.869648,-0.77084 8.202393,-1.6653 4.242668,-1.13866 9.142603,1.08069 16.342038,7.40188 12.027478,10.56026 18.661835,9.78481 31.209889,-3.64792 l 8.01202,-8.5769 6.886023,6.46908 c 5.941163,5.58144 8.77008,6.20784 20.616828,4.56518 21.545332,-2.98746 28.086352,-6.75244 37.81484,-21.76605 4.989135,-7.69955 13.797038,-17.89465 19.573118,-22.65578 10.175115,-8.38719 11.410405,-8.6566 39.691655,-8.6566 26.71023,0 29.86836,-0.58377 37.1794,-6.87246 7.65459,-6.58421 7.78111,-7.10296 3.01647,-12.36783 -2.73529,-3.02246 -4.97325,-7.00128 -4.97325,-8.84183 0,-2.49058 -24.47941,-3.34645 -95.714281,-3.34645 -78.3790173,0 -95.714286,-0.69757 -95.714286,-3.85153 0,-5.28075 41.247712,-7.57705 136.104317,-7.57705 l 75.21539,0 1.88397,-7.85714 c 2.78685,-11.62256 9.35664,-23.57143 12.96018,-23.57143 2.85866,0 2.46673,11.74439 -0.85813,25.71429 -0.89208,3.7482 11.70125,4.28571 100.40856,4.28571 88.25397,0 101.42857,0.55668 101.42857,4.28572 0,5.58927 -33.36874,7.78313 -125.26749,8.23583 -64.83539,0.31939 -68.1945,0.60282 -69.57194,5.87016 -0.79603,3.04402 -5.17566,6.83428 -9.73252,8.4228 -4.55686,1.58853 -8.28519,3.49312 -8.28519,4.23241 0,0.73929 4.33033,4.02046 9.62295,7.29149 8.06098,4.98196 14.23832,5.94731 38.05716,5.94731 l 28.43417,0 12.07992,10.33994 c 8.71657,7.46107 15.4762,17.6036 24.27831,36.42857 19.44532,41.58746 45.86543,64.82582 78.6454,69.17424 9.90846,1.3144 15.71454,3.66511 17.55734,7.10842 3.25626,6.08437 3.6548,71.1069 0.46658,76.12372 -5.29466,8.33142 -23.28138,12.25368 -56.19292,12.25368 -32.27746,0 -32.94803,0.13114 -32.90517,6.42857 0.0943,13.86457 2.35417,14.53423 41.51754,12.30306 20.04155,-1.14177 38.75917,-3.5248 41.59475,-5.29563 7.15551,-4.46872 10.43522,-0.0891 4.43145,5.91774 -4.52705,4.52932 -16.52625,4.96029 -146.9728,5.2788 -78.12379,0.19077 -147.82897,-0.46588 -154.900397,-1.4592 z M 304.1377,678.53555 c -0.10343,-11.81 -1.58103,-12.04063 -89.85591,-14.02414 l -85.29854,-1.9166 1.8458,6.89894 c 1.01519,3.79443 1.86335,8.50608 1.88481,10.47037 0.0303,2.77691 19.10744,3.57143 85.7533,3.57143 79.74457,0 85.71122,-0.34823 85.67054,-5 z M 132.75287,586.39269 c 0,-89.70858 -4.20746,-82.85714 50.88249,-82.85714 29.54432,0 40.84691,1.01761 45,4.05151 5.19782,3.7971 5.60222,8.65474 6.44034,77.36091 l 0.89426,73.3094 70.53431,-1.09585 c 49.56514,-0.77007 73.381,-2.22211 80.10974,-4.88426 l 9.5754,-3.78841 -1.00408,-34.00949 c -1.10752,-37.51325 -3.25977,-42.11768 -16.54923,-35.40429 -12.04363,6.08405 -37.2094,10.99756 -57.26743,11.18122 -23.057,0.21112 -42.63249,-8.49278 -55.46623,-24.6621 -8.441,-10.63487 -8.6022,-11.47915 -10.63663,-55.71429 -1.13614,-24.70368 -2.16637,-46.72095 -2.28934,-48.92726 -0.18686,-3.35062 -6.46031,-3.64083 -38.08074,-1.7616 -20.82143,1.23744 -40.75,2.13189 -44.28572,1.98767 -3.53571,-0.14421 -19.9677,-0.53007 -36.51553,-0.85745 l -30.08696,-0.59523 -10.072813,9.7619 c -5.540045,5.36905 -13.901094,15.72725 -18.580111,23.01823 -9.135286,14.23487 -15.378931,17.01331 -47.75572,21.25136 -15.144643,1.98241 -33.4174343,11.51039 -33.4174343,17.42485 0,1.72342 7.8293972,9.01895 17.3986603,16.2123 33.3429,25.0643 57.4684,49.89354 74.117137,76.27912 16.563821,26.251 25.293881,33.83064 39.198491,34.03308 l 7.85714,0.11439 0,-71.42857 z m 25.58419,46.41581 c 5.57155,-10.60012 11.41581,-19.27295 12.98724,-19.27295 1.57143,0 8,9.96097 14.28571,22.13548 l 11.42857,22.13549 15.04906,0.007 15.04906,0.007 -0.76334,-72.14285 -0.76335,-72.14286 -20.71428,-2.41366 c -11.39286,-1.32751 -30.03572,-1.32751 -41.42857,0 l -20.71429,2.41366 -2.42235,48.55872 c -2.70147,54.15393 -0.46502,98.32865 4.71581,93.14782 1.73835,-1.73835 7.71918,-11.83347 13.29073,-22.43359 l 0,0 z m 28.70152,23.48921 c 0,-2.64008 -14.31793,-29.90502 -15.70434,-29.90502 -2.22844,0 -12.86708,22.3479 -12.86708,27.02904 0,3.37468 3.3278,4.39953 14.28571,4.39953 7.85714,0 14.28571,-0.6856 14.28571,-1.52355 z M 356.3243,579.15385 c 7.36497,-2.86343 6.29974,-4.79075 -7.44817,-13.47583 -21.25703,-13.42888 -40.64775,-36.64665 -54.67369,-65.46443 -12.57394,-25.83445 -21.02277,-36.67804 -28.5778,-36.67804 -2.82054,0 -3.42497,9.17941 -2.68986,40.85008 0.52152,22.46754 2.17169,44.00326 3.66703,47.85714 3.31435,8.54188 17.78303,22.60995 28.36069,27.57546 7.97814,3.7452 51.22431,3.27696 61.3618,-0.66438 l 0,0 z M -4.3899869,550.98409 c 0,-2.18902 -1.9285714,-4.7201 -4.2857142,-5.62462 -4.9595429,-1.90315 -12.8571429,0.55224 -12.8571429,3.99733 0,2.02143 2.845114,3.01119 15,5.21823 1.1785714,0.214 2.1428571,-1.40192 2.1428571,-3.59094 z m -32.1428571,-4.56008 c 5.107143,-3.11389 9.285714,-7.51548 9.285714,-9.78131 0,-4.02759 -19.14063,-21.67858 -23.508125,-21.67858 -1.213388,0 -2.20616,8.35714 -2.20616,18.57143 0,20.72883 1.560953,21.95342 16.428571,12.88846 z M 198.46716,423.53555 c 0,-1.57143 -1.28572,-2.85714 -2.85715,-2.85714 -1.57143,0 -2.85714,1.28571 -2.85714,2.85714 0,1.57143 1.28571,2.85714 2.85714,2.85714 1.57143,0 2.85715,-1.28571 2.85715,-2.85714 z"
           id="path3076"
           inkscape:connector-curvature="0" />
        <path
           style="fill:#464646;fill-opacity:1;stroke:none"
           d="m 565.61001,686.70901 -11.42857,-1.85352 9.64286,-2.08854 c 5.30357,-1.14872 14.625,-2.08854 20.71428,-2.08854 17.20058,0 14.77354,-9.46922 -4.99535,-19.48969 -11.13516,-5.6442 -18.36643,-14.54368 -37.55977,-46.2246 -3.33208,-5.5 -14.22779,-18.06372 -24.21269,-27.91937 -16.50357,-16.28995 -19.83038,-18.26304 -36.58613,-21.69874 l -18.43177,-3.77937 -0.88676,9.55588 c -1.19093,12.83368 -7.46264,12.15799 -10.7522,-1.1584 -2.3221,-9.40007 -3.81055,-10.82595 -12.13468,-11.62468 -5.42776,-0.52081 -12.56412,1.10521 -16.67647,3.79973 -3.9537,2.59056 -8.04127,3.86069 -9.0835,2.82252 -1.04223,-1.03818 -2.33014,-15.92662 -2.86204,-33.08544 -0.90057,-29.05258 -0.59492,-31.19784 4.44492,-31.19784 2.97659,0 9.76871,3.21428 15.09359,7.14285 12.56658,9.27134 17.13323,9.08149 17.18187,-0.71428 0.053,-10.67621 2.94835,-20.71429 5.97474,-20.71429 1.36958,0 3.31252,5.14286 4.31765,11.42857 1.79271,11.21105 2.05167,11.42668 13.60519,11.32889 6.47773,-0.0548 22.0634,-1.92216 34.63483,-4.14964 19.84041,-3.51543 23.79987,-5.23384 30,-13.02002 3.92857,-4.93354 13.69721,-15.92334 21.70808,-24.42179 l 14.56521,-15.45172 28.64302,0 c 22.65051,0 31.40889,-1.22348 41.86336,-5.84799 7.27118,-3.21639 13.22033,-6.49756 13.22033,-7.29148 0,-0.79393 -3.72833,-2.74321 -8.28519,-4.33174 -4.55686,-1.58852 -8.96708,-5.49576 -9.8005,-8.68275 -1.49441,-5.71466 -2.65905,-5.76573 -84.51167,-3.70613 -66.36725,1.66996 -83.89423,1.34323 -87.4776,-1.6307 -7.02201,-5.82775 -0.0231,-8.36516 24.36068,-8.83179 l 21.42857,-0.41008 -17.14286,-3.60797 c -9.42857,-1.98438 -17.78571,-3.8296 -18.57143,-4.10049 -0.78571,-0.27088 1.38229,-1.62497 4.81778,-3.00908 3.83994,-1.54705 25.85432,-0.72572 57.14286,2.13194 37.24835,3.40199 84.60742,4.7 176.61079,4.84053 69.14286,0.1056 127.45869,1.31701 129.59074,2.69201 7.09263,4.57415 -2.59577,7.39215 -26.7336,7.7758 -22.63734,0.35981 -22.71977,0.38799 -8.57142,2.93128 7.85714,1.41239 17.5,3.34449 21.42857,4.29355 6.70825,1.62057 6.7952,1.86726 1.42857,4.05451 -9.0054,3.6703 -35.78749,3.13501 -92.85714,-1.85593 l -52.85715,-4.62255 -12.14285,7.96919 c -6.67858,4.38306 -12.11123,8.7051 -12.07256,9.60453 0.0387,0.89943 4.5915,3.88534 10.11742,6.63534 7.4033,3.68428 17.04589,5 36.64388,5 25.0708,0 27.28177,0.49623 38.53646,8.64907 9.57451,6.93575 14.71742,14.46552 25.96194,38.01113 19.92703,41.72645 45.14557,64.17613 77.55008,69.03549 20.98989,3.14762 21.01163,3.18627 22.04969,39.19502 0.53143,18.43366 -0.37889,35.67776 -2.12466,40.24748 -4.77303,12.49382 -17.83283,16.29038 -56.03723,16.29038 l -33.12994,0 0.89532,9.28571 0.89531,9.28572 38.57143,-0.88626 c 21.21428,-0.48743 39.79286,-2.09457 41.28571,-3.57142 1.49286,-1.47685 4.67143,-2.68518 7.06349,-2.68518 3.2788,0 2.76763,1.58217 -2.07692,6.42857 l -6.42611,6.42857 -142.06594,0.37063 c -78.13627,0.20386 -147.2088,-0.46346 -153.49452,-1.48288 z m 208.64892,-11.02475 c -1.0838,-4.31821 -2.28729,-8.16805 -2.67446,-8.5552 -0.38714,-0.38715 -38.85406,-1.56113 -85.48204,-2.60884 -84.56133,-1.90005 -84.77813,-1.88973 -84.77813,4.03581 0,15.54706 -3.37908,14.97952 89.18686,14.97952 l 85.71834,0 -1.97057,-7.85129 0,0 z M 604.18144,585.1682 c 0,-62.23871 0.64358,-73.29664 4.4898,-77.14285 6.25091,-6.25092 84.37623,-6.64419 90.56452,-0.4559 4.3304,4.33041 7.77242,56.5984 7.79237,118.32878 l 0.0104,32.36268 70.71429,-1.00775 c 52.89714,-0.75384 72.69397,-2.00461 78.57143,-4.96415 l 7.85714,-3.9564 0,-33.25568 c 0,-18.74762 -1.26857,-34.52424 -2.90786,-36.16353 -1.9724,-1.97239 -9.54957,-0.68031 -23.55317,4.01634 -27.8862,9.3527 -61.38437,9.8969 -78.0952,1.2687 -15.23151,-7.8644 -29.08128,-23.83953 -30.86525,-35.6018 -0.77972,-5.14075 -2.09189,-25.53824 -2.916,-45.32778 -0.82409,-19.78953 -2.31569,-38.11096 -3.31469,-40.71428 -1.62366,-4.2312 -9.37337,-4.73332 -73.05492,-4.73332 -82.15537,0 -79.51846,-0.77066 -99.96981,29.2173 -6.13656,8.99809 -13.575,17.65403 -16.52986,19.23542 -2.95485,1.58139 -18.035,4.8416 -33.51142,7.2449 -38.8894,6.03906 -40.9961,6.65119 -40.9961,11.91207 0,4.01809 2.8868,4.42535 21.42857,3.02304 16.44619,-1.24383 21.42857,-0.76232 21.42857,2.07091 0,3.95314 -14.51038,7.21352 -32.33264,7.26492 -10.20113,0.0294 -10.84578,0.53745 -10,7.88075 0.85066,7.38562 2.16991,8.07186 22.33264,11.61691 20.26708,3.5634 22.32965,4.64788 38.05281,20.00784 9.14333,8.93213 22.92205,25.88309 30.61937,37.6688 25.22707,38.62628 29.19467,42.28113 46.32782,42.67604 l 7.85714,0.1811 0,-72.65306 z m 23.37693,49.79873 c 6.78555,-12.56988 13.24455,-22.85559 14.35335,-22.85714 1.1088,-0.002 7.53737,10.26486 14.28572,22.81423 l 12.26972,22.81704 15,0.0401 15,0.0401 -0.0438,-69.28571 c -0.0228,-38.10714 -1.22317,-71.15 -2.66465,-73.42857 -2.07872,-3.28588 -10.6198,-4.14286 -41.28958,-4.14286 -21.26778,0 -39.60542,0.93673 -40.7503,2.08161 -4.98372,4.98372 -4.55584,144.77553 0.44313,144.77553 0.58246,0 6.61082,-10.28445 13.39636,-22.85433 z m 27.98889,19.2829 c -0.13694,-7.79449 -11.5831,-28.78271 -14.24518,-26.12064 -4.50444,4.50444 -13.83527,25.21633 -12.40366,27.53273 2.34508,3.79441 26.71763,2.50295 26.64884,-1.41209 l 0,0 z m 171.14661,-75.64175 c 6.47451,-2.49045 5.89474,-3.25959 -12.17849,-16.15638 -22.55091,-16.09199 -37.73762,-35.35256 -51.16345,-64.88813 -9.78172,-21.51885 -19.65292,-34.02802 -26.85209,-34.02802 -5.59014,0 -5.25737,73.7115 0.39386,87.23676 4.79563,11.47755 16.45191,23.22213 28.71631,28.93384 9.35057,4.35469 48.7494,3.64644 61.08386,-1.09807 z M 437.61001,549.24983 c 10.62589,0 12.28572,-0.82112 12.28572,-6.07779 0,-5.58105 -1.18135,-5.96429 -14.4539,-4.68897 -16.15441,1.55224 -21.51021,5.129 -18.68896,12.48105 1.44936,3.77698 2.69474,4.1624 5.23652,1.62062 1.8342,-1.8342 8.86348,-3.33491 15.62062,-3.33491 z m 12.28572,-22.5474 c 0,-1.40108 -3.53572,-3.42975 -7.85715,-4.50817 -4.32142,-1.07841 -12.03571,-5.14037 -17.14285,-9.02657 l -9.28572,-7.06581 0,11.57398 0,11.57397 17.14286,0 c 9.42857,0 17.14286,-1.14633 17.14286,-2.5474 z M 655.61001,423.53555 c 0,-1.57143 -1.92857,-2.85714 -4.28571,-2.85714 -2.35714,0 -4.28572,1.28571 -4.28572,2.85714 0,1.57143 1.92858,2.85714 4.28572,2.85714 2.35714,0 4.28571,-1.28571 4.28571,-2.85714 z"
           id="path3078"
           inkscape:connector-curvature="0" />
        <path
           style="fill:#464646;fill-opacity:1;stroke:none"
           d="m 1037.0386,686.72086 c -10.3827,-1.67311 -10.7749,-2.03031 -4.2857,-3.90305 3.9285,-1.13375 13.25,-2.07895 20.7143,-2.1004 9.4443,-0.0286 13.5714,-1.20763 13.5714,-3.88189 0,-4.47169 -9.0123,-13.29997 -13.5772,-13.29997 -6.71,0 -21.3387,-15.80012 -32.6742,-35.29089 -6.5329,-11.23287 -20.1019,-28.97539 -30.15337,-39.42781 -14.47267,-15.05007 -20.46367,-19.30722 -28.79242,-20.45965 -5.78441,-0.80038 -18.77945,-3.57647 -28.87786,-6.16909 -16.52805,-4.24334 -18.60789,-4.27225 -20.83665,-0.28968 -4.78137,8.54383 -12.94332,10.72577 -22.20537,5.93618 l -8.59723,-4.4458 0,-30.99806 0,-30.99806 9.11187,-1.82237 c 7.62824,-1.52565 10.58459,-0.39497 18.15671,6.94423 10.80702,10.47457 19.23527,9.61684 31.52222,-3.20798 l 7.9884,-8.33809 6.54192,6.14581 c 6.13988,5.76812 7.73139,5.95309 25.89612,3.00976 16.62465,-2.69378 20.36156,-4.43605 26.49706,-12.35382 3.9286,-5.06977 13.4365,-16.06799 21.1287,-24.4405 l 13.9859,-15.22275 30.9172,0 c 23.093,0 33.4724,-1.2185 41.0141,-4.81489 11.7564,-5.60622 13.0117,-10.97694 3.1445,-13.45344 -3.8238,-0.95972 -7.7676,-4.31339 -8.764,-7.4526 -1.7412,-5.4862 -4.4921,-5.72005 -70.9047,-6.02744 -93.00526,-0.43048 -123.04746,-2.52617 -124.21604,-8.66511 -0.8178,-4.29616 7.87876,-4.66373 101.39994,-4.28571 89.6157,0.36222 102.168,-0.11771 101.2744,-3.87224 -0.561,-2.35714 -1.7176,-9.27837 -2.5701,-15.38051 -2.2399,-16.0322 4.4848,-12.40183 11.5706,6.24646 l 5.6419,14.84833 74.8872,0 c 94.5424,0 135.7761,2.30107 135.7761,7.57705 0,3.15302 -17.2291,3.8548 -95,3.86959 l -95,0.018 -4.893,8.59849 c -9.3602,16.44864 -3.3904,20.29165 35.1815,22.64779 36.6857,2.24093 42.5713,6.66687 61.771,46.45151 11.6217,24.08179 17.3901,32.3682 31.8446,45.74576 17.2864,15.99852 36.6414,25.09181 53.4075,25.09181 3.4509,0 7.9343,2.00007 9.9631,4.44458 4.6226,5.56989 6.7595,43.27627 3.6342,64.12685 -3.363,22.43592 -10.6936,25.70395 -57.6707,25.70986 -35.2467,0.006 -35.329,0.02 -33.6105,6.433 0.9476,3.53571 1.7404,8.217 1.7619,10.40286 0.032,3.29634 6.477,3.62431 37.7812,1.9226 20.7583,-1.12843 40.1541,-3.34246 43.1019,-4.92006 7.4052,-3.96314 9.868,-0.46503 3.8862,5.51977 -4.5264,4.52866 -16.5453,4.96229 -146.9728,5.3026 -78.1238,0.20386 -147.1861,-0.45811 -153.4718,-1.47103 z m 207.1428,-11.30943 0,-8.12411 -45,-1.86637 c -24.75,-1.02649 -63.3214,-1.87066 -85.7142,-1.87589 l -40.7143,-0.01 0,8.09523 c 0,4.4524 0.8571,8.9524 1.9047,10 1.0477,1.04763 39.6191,1.90477 85.7143,1.90477 l 83.8095,0 0,-8.12412 z m -170.7877,-90.92228 c 1.325,-66.69222 1.9288,-73.67716 6.6684,-77.14286 3.7554,-2.74598 16.372,-3.81074 45.1547,-3.81074 33.1581,0 40.8308,0.80323 45.1682,4.72854 4.8009,4.34469 5.225,10.62434 5.225,77.35942 l 0,72.63089 72.1429,-1.00021 c 54.1758,-0.7511 74.0996,-1.98661 80,-4.9609 7.8489,-3.95656 7.8571,-3.99309 7.8571,-35.11847 0,-17.13679 -1.3148,-33.61448 -2.9217,-36.6171 -2.8629,-5.34937 -3.1937,-5.35218 -16.4286,-0.13945 -35.7831,14.09363 -76.0589,13.24054 -95.7755,-2.02864 -19.0234,-14.73237 -21.4836,-21.1041 -23.3871,-60.56837 -0.9474,-19.64285 -2.4175,-41.35344 -3.2667,-48.24574 l -1.5442,-12.53145 -20.481,2.21883 c -24.947,2.70266 -21.8427,2.70508 -76.7797,-0.0597 l -44.8703,-2.25814 -10.1137,7.71413 c -5.5626,4.24277 -15.3015,15.35344 -21.6421,24.69039 -6.5686,9.67271 -14.258,17.61365 -17.8732,18.4578 -3.4896,0.81485 -16.52581,3.38084 -28.96933,5.7022 -20.94342,3.90703 -35.94686,11.83942 -35.94686,19.00527 0,1.24794 7.39286,7.67844 16.42857,14.29 26.11791,19.11085 63.15212,56.70099 72.75142,73.8435 14.5048,25.90297 26.3384,36.54694 41.1262,36.99177 5.9343,0.17851 6.0414,-0.86877 7.4775,-73.15101 l 0,0 z m 26.6582,46.90354 c 5.4536,-10.60714 10.9376,-19.28571 12.1866,-19.28571 1.249,0 7.7514,10.28571 14.4497,22.85714 l 12.1788,22.85714 15.7702,0 15.7702,0 -0.9701,-71.19382 c -0.5336,-39.1566 -1.9773,-72.19946 -3.2082,-73.42857 -2.9201,-2.91566 -78.3166,-2.9168 -81.2381,-0.001 -2.7164,2.7108 -4.879,134.48619 -2.3167,141.16338 2.232,5.81667 3.3111,4.39046 17.3776,-22.96833 z m 26.9867,23.64786 c 0,-4.05637 -12.263,-28.64786 -14.2857,-28.64786 -2.9734,0 -14.4738,25.95571 -12.742,28.75782 2.1951,3.55166 27.0277,3.45063 27.0277,-0.10996 z m 169.2857,-75.90927 c 7.7554,-2.98021 6.1286,-5.70437 -9.3302,-15.62427 -20.6713,-13.26478 -36.0914,-32.07408 -50.3362,-61.40003 -12.0418,-24.79051 -23.0363,-38.57143 -30.7725,-38.57143 -2.8459,0 -3.4498,6.70869 -2.6361,29.28571 2.0472,56.7981 2.2613,58.17168 10.8184,69.39061 12.5902,16.50655 27.0376,21.87734 54.3995,20.22287 12.5714,-0.76015 25.1071,-2.24671 27.8571,-3.30346 z M 938.46716,552.45682 c 0,-4.8985 -8.38591,-9.36523 -14.14861,-7.53622 -10.91704,3.46494 -6.13013,7.83424 10.57718,9.65443 1.96428,0.214 3.57143,-0.7392 3.57143,-2.11821 z m -34.32308,-5.49628 c 14.09103,-6.89084 14.05487,-12.9423 -0.13875,-23.22411 -6.58148,-4.7676 -13.09142,-7.97301 -14.46653,-7.12314 -1.37512,0.84987 -2.50022,9.18362 -2.50022,18.51945 0,18.84076 1.14532,19.63271 17.1055,11.8278 l 0,0 z M 1124.1814,423.53555 c 0,-1.57143 -1.2857,-2.85714 -2.8571,-2.85714 -1.5714,0 -2.8571,1.28571 -2.8571,2.85714 0,1.57143 1.2857,2.85714 2.8571,2.85714 1.5714,0 2.8571,-1.28571 2.8571,-2.85714 z"
           id="path3080"
           inkscape:connector-curvature="0" />
      </g>
      <path
         inkscape:connector-curvature="0"
         id="path3857"
         d="m -359.14622,650.60049 c -4.18735,-2.27417 -14.14586,-14.78716 -22.13002,-27.80665 -7.98416,-13.01949 -23.52892,-32.64304 -34.54392,-43.6079 -19.11077,-19.02379 -20.97297,-20.13223 -40.69305,-24.22182 -14.47255,-3.00135 -20.93077,-5.6695 -21.54997,-8.90316 -0.71927,-3.75628 2.87122,-4.98749 19.25165,-6.60157 18.91519,-1.86386 20.13583,-2.40786 20.13583,-8.97394 0,-6.93897 -0.15064,-6.97661 -20.71429,-5.17652 -31.2666,2.73701 -20.58587,-3.00642 15.76922,-8.4797 34.59117,-5.20772 45.15441,-9.49549 50.09242,-20.33324 1.87148,-4.10746 9.36916,-13.84674 16.66151,-21.64284 l 13.25881,-14.17474 70.68045,0 70.68045,0 1.78571,8.92857 c 0.98215,4.91071 1.87958,20.66071 1.9943,35 0.33762,42.20142 3.01586,54.64523 14.28655,66.37917 16.72875,17.41633 29.16855,22.18229 56.93344,21.81243 16.0282,-0.21351 30.97869,-2.40993 43.97006,-6.45976 16.047483,-5.00254 20.130483,-5.43245 22.099083,-2.32691 1.328143,2.09514 2.434486,16.78155 2.458543,32.63645 0.05829,38.38121 4.435571,36.43633 -84.956256,37.74658 l -69.28572,1.01554 0,-71.65175 c 0,-91.03964 4.86626,-83.82408 -55.6824,-82.56427 -24.12154,0.50188 -44.71619,1.77494 -45.76588,2.82902 -5.05125,5.07235 -6.99252,29.11312 -7.05498,87.36921 -0.0751,70.06359 0.25731,68.95044 -17.68154,59.2078 l 0,0 z"
         style="fill:#ffffff;fill-opacity:1;stroke:none" />
      <path
         inkscape:connector-curvature="0"
         id="path3859"
         d="M 114.18144,652.23833 C 106.14406,648.91385 97.998102,639.10034 86.978502,619.46671 76.40797,600.63318 42.390073,565.65929 15.826714,546.31537 6.2789571,539.36251 -1.532844,532.87769 -1.532844,531.90465 c 0,-5.58936 13.363671,-11.85845 33.143829,-15.54824 12.413751,-2.31566 25.467591,-4.88753 29.008531,-5.71526 3.678046,-0.85977 12.47276,-9.8019 20.514651,-20.8585 20.758093,-28.53978 20.024263,-28.325 88.047273,-25.77065 4.32143,0.16227 24.04944,-0.70965 43.84002,-1.93761 l 35.98288,-2.23265 1.87426,13.67425 c 1.03085,7.52084 2.00243,27.31623 2.15907,43.98976 0.15663,16.67353 1.12093,33.21897 2.14286,36.76764 2.65436,9.21731 22.94845,29.32433 34.7152,34.3952 18.14505,7.81958 50.98074,5.45525 93.16871,-6.70861 5.02989,-1.45025 6.32852,-0.22406 7.85714,7.41908 1.0072,5.03607 1.83129,19.71797 1.83129,32.62645 0,32.12853 2.68309,31.10402 -84.82,32.38759 l -69.10571,1.0137 -0.89429,-73.31269 c -0.83813,-68.7094 -1.24252,-73.56708 -6.44037,-77.3642 -7.95547,-5.8116 -86.66679,-5.81153 -94.62212,8e-5 -5.19901,3.79805 -5.59938,8.62561 -6.39781,77.14286 -0.92437,79.32516 -0.37427,76.94913 -16.29113,70.36548 z"
         style="fill:#ffffff;fill-opacity:1;stroke:none" />
      <path
         inkscape:connector-curvature="0"
         id="path3861"
         d="m 578.66272,647.54738 c -4.84786,-4.07921 -13.41078,-15.25945 -19.02871,-24.84499 -10.80146,-18.42988 -26.31829,-36.82479 -45.86227,-54.36884 -9.5898,-8.60848 -15.5528,-11.30009 -31.39529,-14.17138 -14.5477,-2.63662 -19.80216,-4.81742 -20.51408,-8.51413 -0.73366,-3.8096 0.99953,-4.96963 7.42508,-4.96963 4.61019,0 14.41267,-0.82658 21.78329,-1.83683 11.5381,-1.58148 13.28165,-2.67378 12.54163,-7.85715 -0.799,-5.59655 -2.36783,-5.96286 -22.28807,-5.2041 -29.01161,1.10504 -20.77916,-3.01127 18.57143,-9.2859 17.28571,-2.75629 33.65157,-6.18754 36.36857,-7.625 2.717,-1.43746 10.0875,-10.1936 16.37888,-19.45808 20.02324,-29.48552 17.48079,-28.73294 97.06899,-28.73294 55.35292,0 69.22695,0.76257 70.41959,3.87053 0.8169,2.1288 2.42952,23.92323 3.58362,48.43208 2.06593,43.87323 2.23142,44.72917 10.71385,55.41517 13.8497,17.44757 32.00198,24.89408 59.55824,24.43221 12.67811,-0.21248 30.12254,-2.46022 38.7654,-4.99495 8.64286,-2.53473 18.64931,-5.33949 22.23657,-6.23281 l 6.52229,-1.62422 -0.808,33.83569 -0.808,33.83569 -11.42857,3.43858 c -7.30286,2.19726 -34.22023,3.51785 -74.56338,3.65816 l -63.1348,0.21958 -1.94919,-72.14286 c -1.84589,-68.31943 -2.26437,-72.40784 -7.89601,-77.14285 -5.05094,-4.24677 -12.04448,-5 -46.42313,-5 -58.07268,0 -53.17635,-7.51263 -53.17635,81.59058 l 0,72.69513 -6.92364,0 c -3.80801,0 -10.89008,-3.33753 -15.73794,-7.41674 l 0,0 z"
         style="fill:#ffffff;fill-opacity:1;stroke:none" />
      <path
         inkscape:connector-curvature="0"
         id="path3863"
         d="m 1052.2385,650.57752 c -4.2695,-2.31833 -14.0787,-14.78895 -22.1718,-28.18744 -15.26,-25.26384 -44.94037,-55.78391 -75.29557,-77.42596 -8.81636,-6.28571 -16.09145,-12.41175 -16.16686,-13.61342 -0.28507,-4.54252 17.96044,-12.91888 32.1984,-14.78202 33.50323,-4.38412 38.54453,-6.82457 50.51703,-24.45493 6.1188,-9.01034 15.373,-19.95717 20.5649,-24.32627 l 9.4397,-7.94382 44.2857,2.19387 c 56.0062,2.7745 52.3091,2.7675 74.6932,0.1413 l 18.979,-2.22668 1.6239,8.22027 c 0.8932,4.52115 2.4093,25.41509 3.3691,46.43099 0.9598,21.01589 2.8139,40.94446 4.1203,44.28571 3.142,8.03625 19.0302,22.73719 31.5002,29.14635 14.204,7.30035 52.219,6.55136 77.9152,-1.53513 10.6391,-3.34807 20.6034,-5.30894 22.1429,-4.35748 1.5473,0.95627 2.7991,15.50497 2.7991,32.53127 0,40.80325 4.8607,38.53117 -85,39.73201 l -69.2857,0.92589 0,-72.87909 c 0,-89.12283 4.6055,-81.792 -51.3501,-81.73552 -42.8157,0.0432 -50.2506,1.18034 -52.9581,8.09968 -1.0155,2.59515 -2.588,36.53988 -3.4943,75.43273 -1.8032,77.37753 -1.3147,75.61911 -18.4262,66.32769 z"
         style="fill:#ffffff;fill-opacity:1;stroke:none" />
      <path
         inkscape:connector-curvature="0"
         id="path3865"
         d="m -50.104273,534.54562 0,-14.42836 9.285715,5.87929 c 5.107143,3.23362 9.285714,7.96942 9.285714,10.52402 0,2.55459 -4.178571,6.40167 -9.285714,8.54906 l -9.285715,3.90435 0,-14.42836 z"
         style="fill:#ffffff;fill-opacity:1;stroke:none" />
      <path
         inkscape:connector-curvature="0"
         id="path3869"
         d="m -521.53284,520.32856 c 0,-4.66097 0.86199,-5.34873 3.72534,-2.97237 2.04893,1.70047 6.87036,4.34783 10.71428,5.88303 6.45829,2.57933 6.17544,2.80502 -3.72534,2.97237 -9.07244,0.15335 -10.71428,-0.74816 -10.71428,-5.88303 z"
         style="fill:#ffffff;fill-opacity:1;stroke:none" />
      <path
         inkscape:connector-curvature="0"
         id="path3875"
         d="m 418.46716,518.75179 0,-7.64089 6.42857,5.84866 c 3.53571,3.21677 8.35714,6.55367 10.71428,7.41534 2.35715,0.86166 -0.53571,1.66817 -6.42857,1.79223 -9.76627,0.2056 -10.71428,-0.45052 -10.71428,-7.41534 z"
         style="fill:#ffffff;fill-opacity:1;stroke:none" />
      <path
         inkscape:connector-curvature="0"
         id="path3877"
         d="m 422.58467,545.19736 c 6.09606,-4.96707 24.45391,-6.21462 24.45391,-1.66181 0,1.57143 -4.39484,2.85714 -9.76632,2.85714 -5.37147,0 -12.12147,0.74782 -15,1.66182 -4.7892,1.52068 -4.76267,1.27804 0.31241,-2.85715 l 0,0 z"
         style="fill:#ffffff;fill-opacity:1;stroke:none" />
      <path
         inkscape:connector-curvature="0"
         id="path3879"
         d="m 889.89573,534.96412 c 0,-7.85714 1.01285,-14.28571 2.25078,-14.28571 1.23793,0 6.67751,3.69559 12.08795,8.21243 l 9.83717,8.21243 -9.94509,6.0626 c -5.46981,3.33443 -10.90938,6.06741 -12.08796,6.07328 -1.17857,0.006 -2.14285,-6.41789 -2.14285,-14.27503 z"
         style="fill:#ffffff;fill-opacity:1;stroke:none" />
      <path
         inkscape:connector-curvature="0"
         id="path3893"
         d="m -180.01978,574.15933 c -20.53622,-11.63134 -23.35207,-18.98175 -25.07069,-65.4437 -0.83197,-22.4919 -0.95305,-41.49175 -0.26906,-42.22188 3.66141,-3.90842 12.69141,7.8774 27.23735,35.54979 16.91443,32.17825 32.2498,50.63317 53.0128,63.79676 6.67576,4.23239 12.14004,8.49131 12.14286,9.46427 0.008,2.6657 -19.27186,5.3129 -38.56632,5.29539 -12.48599,-0.0114 -20.22449,-1.76093 -28.48694,-6.44063 l 0,0 z"
         style="fill:#cccccc;fill-opacity:1;stroke:none" />
      <path
         inkscape:connector-curvature="0"
         id="path3895"
         d="m 294.18144,576.62881 c -12.60288,-5.6254 -24.39523,-19.4965 -27.25544,-32.06 -3.41965,-15.02088 -3.23337,-78.17612 0.23059,-78.17612 5.72427,0 14.78688,12.47067 24.41286,33.5935 13.16406,28.88663 28.30875,48.46116 47.97183,62.00364 8.8378,6.08683 16.06873,11.97825 16.06873,13.09206 0,6.22485 -48.22747,7.43934 -61.42857,1.54692 z"
         style="fill:#cccccc;fill-opacity:1;stroke:none" />
      <path
         inkscape:connector-curvature="0"
         id="path3897"
         d="m 765.61001,576.61294 c -11.72378,-5.25472 -21.28719,-14.89832 -26.02914,-26.2474 -4.38352,-10.49124 -5.79391,-83.97285 -1.61175,-83.97285 4.96361,0 14.65898,13.81179 27.07572,38.57143 14.96345,29.83791 27.30671,45.13658 47.43648,58.79444 7.92546,5.37734 14.44307,10.58056 14.48359,11.5627 0.24849,6.02299 -48.50874,7.04945 -61.3549,1.29168 z"
         style="fill:#cccccc;fill-opacity:1;stroke:none" />
      <path
         inkscape:connector-curvature="0"
         id="path3899"
         d="m 1232.2685,574.88757 c -5.7663,-3.04606 -13.2896,-9.47802 -16.7183,-14.29323 -6.8682,-9.64544 -7.7075,-15.04484 -9.6461,-62.05879 -1.0245,-24.84502 -0.498,-32.14286 2.3188,-32.14286 5.9561,0 12.209,8.79363 25.4873,35.84348 13.8917,28.29947 32.4774,50.91278 51.9617,63.22227 7.0318,4.44241 12.7873,8.87317 12.7901,9.84613 0.01,2.69585 -19.4097,5.32208 -38.5663,5.21612 -11.297,-0.0625 -20.7181,-1.98344 -27.6272,-5.63312 l 0,0 z"
         style="fill:#cccccc;fill-opacity:1;stroke:none" />
    </g>
  </g>
</svg>
