<?xml version="1.0" encoding="UTF-8" standalone="no"?>
<!-- Created with Inkscape (http://www.inkscape.org/) -->

<svg
   xmlns:dc="http://purl.org/dc/elements/1.1/"
   xmlns:cc="http://creativecommons.org/ns#"
   xmlns:rdf="http://www.w3.org/1999/02/22-rdf-syntax-ns#"
   xmlns:svg="http://www.w3.org/2000/svg"
   xmlns="http://www.w3.org/2000/svg"
   xmlns:sodipodi="http://sodipodi.sourceforge.net/DTD/sodipodi-0.dtd"
   xmlns:inkscape="http://www.inkscape.org/namespaces/inkscape"
   width="744.09448819"
   height="1052.3622047"
   id="svg2"
   version="1.1"
   inkscape:version="0.48.1 "
   sodipodi:docname="animation.svg">
  <defs
     id="defs4" />
  <sodipodi:namedview
     id="base"
     pagecolor="#ffffff"
     bordercolor="#666666"
     borderopacity="1.0"
     inkscape:pageopacity="0.0"
     inkscape:pageshadow="2"
     inkscape:zoom="2.8284271"
     inkscape:cx="375"
     inkscape:cy="555.71429"
     inkscape:document-units="px"
     inkscape:current-layer="layer1"
     showgrid="false"
     inkscape:window-width="1366"
     inkscape:window-height="706"
     inkscape:window-x="-4"
     inkscape:window-y="-4"
     inkscape:window-maximized="1" />
  <metadata
     id="metadata7">
    <rdf:RDF>
      <cc:Work
         rdf:about="">
        <dc:format>image/svg+xml</dc:format>
        <dc:type
           rdf:resource="http://purl.org/dc/dcmitype/StillImage" />
        <dc:title />
      </cc:Work>
    </rdf:RDF>
  </metadata>
  <g
     inkscape:label="Layer 1"
     inkscape:groupmode="layer"
     id="layer1">
    <path
       style="fill:#000000"
       d="m 298.72339,560.99981 c -0.25464,-0.6875 -2.72087,-10.07442 -2.86148,-22.16935 l -0.25564,-21.99078 -3,-0.51485 c -2.9233,-0.50168 -3.01278,-0.6875 -3.5,-7.26786 -0.275,-3.71415 -0.35,-7.19912 -0.16667,-7.74437 0.18334,-0.54525 1.87084,-0.99136 3.75,-0.99136 3.35286,0 3.41668,-0.0794 3.41717,-4.25 l 5.1e-4,-4.25 -9.25051,0.35594 c -5.08777,0.19576 -9.5257,0.79651 -9.86205,1.33499 -0.33634,0.53848 -1.39059,4.87831 -2.34277,9.64406 -0.95218,4.76576 -2.06359,9.79001 -2.46981,11.16501 -0.71926,2.43461 -1.01151,2.50736 -11.17308,2.78146 -7.63909,0.20605 -10.93786,-0.0866 -12.31342,-1.09245 -1.81192,-1.32491 -1.69543,-2.02267 3.26585,-19.56314 2.82963,-10.00407 5.14478,-18.38254 5.14478,-18.61881 0,-0.23627 -2.3625,-1.18546 -5.25,-2.10931 -3.14329,-1.00568 -10.46661,-1.92411 -18.25,-2.28874 l -13,-0.60901 0,-5.5 0,-5.5 10.98623,-0.28623 c 6.04242,-0.15742 11.41992,-0.71992 11.95,-1.25 0.53007,-0.53007 2.22377,-0.96377 3.76377,-0.96377 2.12292,0 2.8,-0.47829 2.8,-1.97794 0,-1.89052 0.82804,-1.98995 18.73708,-2.25 16.70248,-0.24252 18.77251,-0.45646 19.06335,-1.97027 0.27169,-1.41414 -0.64613,-1.74868 -5.48708,-2 l -5.81335,-0.30179 0,-6 0,-6 5.5,-0.30728 c 3.025,-0.16901 5.9275,-0.73151 6.45,-1.25 0.5225,-0.5185 7.62412,-0.94272 15.78138,-0.94272 12.26097,0 14.93115,0.25996 15.40699,1.5 0.48616,1.26692 3.81299,1.5 21.4096,1.5 12.81064,0 21.07201,-0.38511 21.45203,-1 0.39042,-0.63171 11.98312,-1 31.47723,-1 16.97256,0 31.571,0.27314 32.44098,0.60699 1.21414,0.46591 1.58179,2.0929 1.58179,7 l 0,6.39301 -15,0 c -8.25,0 -15,0.40122 -15,0.89159 0,0.49038 1.11886,1.17241 2.48635,1.51563 1.3675,0.34322 27.39294,0.60251 57.83431,0.57621 30.44138,-0.0263 56.09752,0.23981 57.01365,0.59136 1.37986,0.52951 1.66569,2.15115 1.66569,9.45041 0,4.84617 -0.27314,9.52303 -0.60699,10.39301 -0.54249,1.41371 -6.01472,1.58179 -51.5,1.58179 -27.99115,0 -50.89301,0.28438 -50.89301,0.63197 0,0.34758 0.62718,1.8435 2.26013,4 1.35765,1.79292 1.64965,2.11803 2.92731,3.36803 0.46633,0.45623 0.84957,2.81406 0.54304,7.75 -0.26471,4.2625 -0.76944,8.875 -1.12161,10.25 -0.35218,1.375 -1.23835,5.88167 -1.96926,10.01483 -0.73091,4.13315 -1.95708,8.52065 -2.72481,9.75 -1.2978,2.0781 -2.11833,2.23517 -11.67679,2.23517 -9.9454,0 -10.31739,-0.0801 -11.39938,-2.45482 -0.90054,-1.97648 -0.67166,-3.87633 1.17463,-9.75 1.26121,-4.01235 3.38081,-10.7408 4.71022,-14.95212 1.32942,-4.21132 2.27298,-9.15819 2.09682,-10.99305 -0.24389,-2.5403 -1.01605,-3.66801 -3.23694,-4.72749 -1.98886,-0.94879 -3.7154,-1.11005 -5.42765,-0.50696 -1.51672,0.53423 -4.81606,4.25021 -8.33225,9.38444 -3.20168,4.675 -5.82174,8.84716 -5.82235,9.27147 -6.1e-4,0.4243 -2.34581,3.75503 -5.21155,7.40162 l -5.21044,6.63016 -0.70703,16.09838 c -0.38887,8.8541 -0.74417,17.75373 -0.78956,19.77694 0.29166,7.41832 -0.80995,9.49358 -2.58253,11.32143 l -22.75,0.26877 c -17.50119,-0.0774 -21.19639,0.53505 -40.13288,-0.0902 z m -13.80825,-72.67857 c 3.90768,0 7.50612,-0.53261 8.44527,-1.25 0.90001,-0.6875 1.93481,-2.4875 2.29953,-4 l 0.66315,-2.75 -8.48341,0 -8.48341,0 -0.625,3.125 c -0.34375,1.71875 -0.625,3.51875 -0.625,4 0,0.48125 3.06399,0.875 6.80887,0.875 z m 57.50687,-33.16811 c 9.33159,0.0992 16.60875,-0.2563 17.75,-0.86707 1.06384,-0.56936 1.93426,-1.69436 1.93426,-2.5 0,-1.23969 -3.21115,-1.46482 -20.89301,-1.46482 -17.64908,0 -20.98238,0.2329 -21.46862,1.5 -0.31658,0.825 -1.60222,1.57565 -2.85699,1.66811 -1.25476,0.0925 0.41862,0.46681 3.71862,0.83189 3.3,0.36508 13.11708,0.73943 21.81574,0.83189 z"
       id="path3008"
       inkscape:connector-curvature="0"
       sodipodi:nodetypes="cscsscsscscsssssssscccssssssscccssssssssscssssssssssssssssssssssssscsccccssscccsssscssscss"
       inkscape:export-filename="C:\Users\Bennett\Dropbox\One Man Army\One Man Army\HighResolutionContent\Sprites\Player\Weapons\06\base.png"
       inkscape:export-xdpi="90"
       inkscape:export-ydpi="90" />
  </g>
</svg>
